<svg viewBox="157.5 -15.73008849557516 962.5000000000001 664.1592920353982" xmlns="http://www.w3.org/2000/svg" xmlns:blush="http://design.blush" overflow="visible" xmlns:xlink="http://www.w3.org/1999/xlink" width="962.5000000000001px" height="664.1592920353982px"><g id="Master/Scenes/Hero" stroke="none" stroke-width="1" fill="none" fill-rule="evenodd" blush:viewBox="154 -18.209219858156075 987.0000000000001 665.3368794326241" blush:i="0"><g id="Background" transform="translate(202.000000, -14.000000)" fill="#FBF9FF" blush:i="0.0"><path d="M268.105601,655.985907 L729,655.985907 C660.039546,218.661969 597.540547,0 541.503001,0 C457.446683,0 426.674818,136.155071 380.566902,188.738444 C334.458987,241.321818 307.651166,264.539139 232.263458,226.638791 C156.875749,188.738444 0,204.809698 0,331.820319 C0,416.494067 22.0464063,524.411437 66.1392189,655.572431 L268.105601,655.985907 Z" id="Path-2-Copy-3" blush:i="0.0.0"/></g><g id="Rock/Big" transform="translate(469.000000, 318.000000) scale(1 1)" blush:width="666" blush:height="324" blush:component="Rock/Big" blush:i="0.1" blush:value="Yellow 2" blush:viewBox="176.49 123.66666666666669 313.0199999999999 203.3333333333334"><g id="Rock/Big/Yellow 2" stroke="none" stroke-width="1" fill="none" fill-rule="evenodd" blush:viewBox="176.49 123.66666666666669 313.0199999999999 203.3333333333334" blush:i="0.1.0"><path d="M177,324 C214.367097,190.666667 240.646135,124 255.837115,124 C278.623584,124 351.230023,182.419878 372.609292,182.419878 C386.862138,182.419878 425.659041,229.613252 489,324 L177,324 Z" id="Path-6" fill="#FFDA2D" blush:i="0.1.0.0"/></g></g><g id="Plant" transform="translate(127.000000, 102.000000) scale(1 1)" fill="#000" blush:width="287" blush:height="540" blush:component="Plant" blush:i="0.2" blush:value="Foliage Mid 2" blush:viewBox="38.30263157894734 110.70000000000005 113.28947368421056 429.29999999999995"><g id="Plant/Foliage Mid 2" stroke="none" stroke-width="1" fill="none" fill-rule="evenodd" blush:viewBox="38.30263157894734 110.70000000000005 113.28947368421056 429.29999999999995" blush:i="0.2.0"><g id="Group-3" transform="translate(39.000000, 113.000000)" fill="#000" blush:i="0.2.0.0"><path d="M22.2189,167.6654 C18.7389,169.4764 16.3269,172.1034 15.6179,176.0304 C18.7459,173.9764 20.5589,170.8784 22.2189,167.6654 M41.7299,266.6874 C44.5299,268.3404 47.1289,267.7894 48.7369,265.3734 C49.6459,264.0074 49.6119,263.1644 48.6099,262.1854 C47.5189,261.1194 46.5519,261.0434 45.2209,262.0704 C43.6879,263.2534 42.6009,264.8014 41.7299,266.6874 M38.6729,189.3734 C38.4869,189.6544 38.3119,189.8294 38.2379,190.0404 C37.2669,192.8234 36.2239,195.5864 35.3669,198.4054 C34.0119,202.8684 35.8819,205.5074 39.3879,207.8694 C40.3609,208.5254 41.4029,208.4304 42.2619,207.6624 C42.8459,207.1414 43.4399,206.5194 43.7449,205.8174 C45.1479,202.6114 46.4459,199.3594 47.7879,196.1274 C48.2489,195.0194 47.9499,194.0844 47.1239,193.3064 C44.7409,191.0614 41.9899,189.6144 38.6729,189.3734 M2.3189,91.9584 C3.5579,93.2064 4.7009,94.3054 5.7859,95.4594 C8.5769,98.4304 11.2449,101.5244 14.1609,104.3654 C15.5609,105.7284 17.3269,106.7944 19.0799,107.6974 C20.9619,108.6674 22.9729,108.5394 24.7619,107.2474 C28.3069,104.6854 28.7869,102.6844 26.5899,98.8944 C23.5349,93.6294 19.3179,89.3994 14.4829,85.7604 C13.9769,85.3794 13.3869,85.1084 12.8259,84.8024 C11.8139,84.2494 10.7659,84.3214 9.8639,84.9404 C7.0329,86.8844 4.4669,89.1194 2.3189,91.9584 M89.5009,414.2274 C89.6169,414.2364 89.7339,414.2464 89.8499,414.2554 C89.9869,413.9804 90.1819,413.7204 90.2519,413.4294 C92.2319,405.2804 94.4479,397.1794 96.1129,388.9664 C98.9389,375.0304 101.4799,361.0334 103.1839,346.9064 C104.3029,337.6294 105.3409,328.3394 106.2439,319.0374 C106.7919,313.3944 107.0819,307.7214 107.3659,302.0564 C107.9329,290.7834 107.7249,279.5084 106.9849,268.2544 C106.4389,259.9634 105.5699,251.6934 104.8529,243.4134 C104.1429,235.2134 103.3629,227.0174 102.7559,218.8094 C101.4859,201.5954 100.2749,184.3764 99.1139,167.1554 C98.7049,161.0944 98.4549,155.0204 98.2429,148.9494 C97.9549,140.7134 98.1299,132.4784 98.8609,124.2694 C99.5119,116.9484 100.2379,109.6344 101.0189,102.3274 C101.6729,96.2114 102.3679,90.0984 103.2009,84.0054 C104.3149,75.8524 105.6669,67.7314 106.7519,59.5754 C107.7639,51.9754 108.6869,44.3564 109.4049,36.7244 C109.8449,32.0384 109.9619,27.3104 109.973956,22.6004 C109.9849,18.4354 108.3799,14.7874 105.3769,11.8724 C104.5479,11.0664 103.4489,10.2514 102.3629,10.0554 C99.8699,9.6044 97.3099,9.5324 94.5619,9.2884 C94.1249,11.3134 93.7029,13.0834 93.3649,14.8684 C91.6999,23.6574 89.7949,32.4114 88.4679,41.2524 C86.5339,54.1384 85.7979,67.1564 84.9699,80.1554 C84.0599,94.4454 83.6209,108.7524 84.0329,123.0654 C84.4019,135.8494 84.9519,148.6294 85.6049,161.4014 C85.8359,165.9364 86.5809,170.4454 87.1529,174.9584 C87.2399,175.6454 87.4479,176.3004 86.6149,176.5104 C85.7779,176.7214 85.5049,175.9954 85.3569,175.3784 C85.0579,174.1394 84.7109,172.8894 84.6199,171.6264 C84.1259,164.7744 83.6549,157.9214 83.2729,151.0624 C82.9659,145.5574 82.7189,140.0444 82.5869,134.5314 C82.3539,124.7864 81.9459,115.0324 82.1319,105.2924 C82.3549,93.7104 83.0139,82.1314 83.7029,70.5634 C84.1829,62.5124 84.8879,54.4664 85.7529,46.4454 C86.8589,36.1894 89.0269,26.1034 91.0869,16.0074 C91.5149,13.9124 91.9299,11.8134 92.3639,9.6474 C90.5109,9.0894 88.6399,8.9004 87.2639,9.6374 C85.0479,10.8214 82.7459,12.2514 81.5899,14.6384 C80.3569,17.1834 78.5399,19.4864 78.1789,22.4364 C78.1119,22.9884 77.7019,23.7574 77.2489,23.9484 C76.2569,24.3684 76.0789,25.1784 75.8089,26.0004 C68.9949,46.7124 64.9899,67.9064 64.9545036,89.7664 C64.9329,104.0104 65.8269,118.2124 67.5889,132.3414 C69.1299,144.7044 70.7819,157.0614 72.7299,169.3664 C75.0149,183.7994 77.8249,198.1494 80.1239,212.5804 C82.2979,226.2264 84.3019,239.9034 86.0099,253.6134 C87.5019,265.5834 88.6779,277.6014 89.6219,289.6264 C90.4669,300.3814 90.9029,311.1714 91.3449,321.9524 C92.3009,345.2234 91.5819,368.4774 90.4499,391.7244 C90.0849,399.2224 89.8149,406.7264 89.5009,414.2274 M95.1969,7.0694 C97.1329,7.2604 99.0209,7.5454 100.9169,7.6084 C103.9639,7.7124 106.1959,9.1704 108.0439,11.4564 C111.0529,15.1794 112.2829,19.5154 112.1469,24.1894 C111.9919,29.4574 111.6929,34.7304 111.2029,39.9774 C110.6319,46.0994 109.8549,52.2044 109.0429,58.3004 C108.0839,65.5034 106.9439,72.6834 105.9759,79.8864 C105.0189,87.0094 104.1079,94.1404 103.3099,101.2824 C102.5099,108.4294 101.7339,115.5834 101.2109,122.7544 C100.7399,129.2044 100.3059,135.6864 100.4309,142.1444 C100.6379,152.8484 101.2279,163.5464 101.8019,174.2394 C102.3589,184.6124 102.9679,194.9864 103.7919,205.3414 C104.8689,218.8814 106.1529,232.4054 107.3999,245.9334 C108.9349,262.5754 110.2469,279.2284 109.8309,295.9634 C109.5699,306.5134 108.9509,317.0424 107.6669,327.5234 C106.5009,337.0404 105.4679,346.5744 104.1589,356.0704 C103.2329,362.7944 102.0839,369.4944 100.7819,376.1554 C98.8229,386.1854 96.6979,396.1844 94.5279,406.1704 C93.6289,410.3024 92.3859,414.3564 91.3799,418.4674 C90.7239,421.1454 91.3849,421.9674 94.2229,422.3254 C95.4569,422.4814 95.7389,422.9264 95.2649,424.0554 C95.0809,424.4934 94.8249,424.9084 94.5589,425.3064 C93.5729,426.7724 93.2149,426.8214 91.7229,425.7564 C91.5319,425.6194 91.3269,425.5014 91.1509,425.3884 C90.6159,425.6084 90.1199,425.8124 89.7109,425.9814 C89.5099,425.8744 89.3939,425.8514 89.3769,425.7974 C88.7319,423.7174 86.3659,422.3414 86.7539,419.8964 C86.9799,418.4784 86.6129,417.3814 85.8119,416.3374 C81.3349,410.5034 76.8599,404.6694 72.3589,398.8554 C65.9479,390.5764 59.2769,382.4864 53.1479,374.0054 C44.4599,361.9834 38.1269,348.7604 34.5339,334.3054 C31.6569,322.7274 30.8659,310.9874 31.7029,299.0994 C32.2949,290.6954 33.5989,282.4344 36.1099,274.3854 C36.7279,272.4054 37.4479,270.4494 38.2689,268.5464 C38.6869,267.5764 38.5119,266.9654 37.8739,266.1934 C32.3319,259.4994 29.6659,251.6794 28.9029,243.1124 C28.1419,234.5764 28.8859,226.1734 31.3719,217.9834 C32.3859,214.6444 33.9279,211.4654 35.3649,207.8764 C35.3049,207.7894 35.0409,207.3114 34.6969,206.9014 C32.4849,204.2624 32.1479,201.2644 33.1559,198.1044 C34.0039,195.4424 35.0469,192.8434 35.9919,190.2114 C36.1759,189.7014 36.5049,189.1374 36.4219,188.6574 C36.1679,187.1884 37.0029,186.9364 38.0809,187.0944 C39.5789,187.3114 41.0529,187.6904 42.5389,187.9864 C42.9209,188.0614 43.3139,188.0814 43.7369,188.1314 C44.5049,186.7944 45.2389,185.5204 45.9979,184.1994 C47.0579,185.1664 47.0579,185.1664 45.6589,189.2334 C46.5309,189.9474 47.4719,190.6684 48.3579,191.4514 C49.9469,192.8554 50.5799,194.6274 49.8319,196.6394 C48.6359,199.8534 47.2979,203.0164 46.0129,206.1974 C45.9239,206.4184 45.7879,206.6214 45.6629,206.8264 C43.4909,210.3954 41.4489,211.1114 37.2339,209.6134 C36.6879,210.5884 36.0599,211.5794 35.5569,212.6314 C33.2929,217.3654 32.0619,222.4104 31.3749,227.5754 C30.4539,234.5014 30.3199,241.4394 31.7179,248.3374 C32.7789,253.5674 34.7639,258.4174 37.7829,262.8294 C38.1449,263.3564 38.5379,263.8624 38.9449,264.3544 C39.1419,264.5954 39.4039,264.7824 39.7949,265.1364 C40.3019,264.4494 40.7269,263.8044 41.2219,263.2184 C41.9949,262.3064 42.7319,261.3364 43.6329,260.5634 C45.8839,258.6324 47.7879,258.6784 49.7999,260.5654 C51.7719,262.4164 51.9559,264.4764 50.3569,266.7764 C48.4799,269.4774 45.2459,270.5434 42.1259,269.4854 C41.6789,269.3344 41.2389,269.1624 40.5679,268.9174 C40.1919,269.7424 39.7959,270.5014 39.4909,271.2964 C36.9849,277.8254 35.6329,284.6364 34.6569,291.5284 C33.7259,298.1134 33.4739,304.7404 33.6479,311.3864 C34.1099,328.9954 38.8749,345.4034 47.3889,360.7754 C51.9359,368.9834 57.3429,376.6024 63.1789,383.9274 C70.2029,392.7434 77.2569,401.5364 84.3019,410.3374 C84.5419,410.6384 84.8149,410.9134 85.4679,411.0644 C85.2279,410.1374 85.0149,409.2014 84.7419,408.2844 C80.3469,393.5064 75.9589,378.7274 71.5389,363.9564 C68.0659,352.3484 65.9349,340.5244 65.2519,328.4064 C64.7189,318.9464 65.3149,309.5544 66.1759,300.1584 C67.4669,286.0764 69.4979,272.0474 69.4579,257.8674 C69.4089,240.4434 67.5479,223.2464 62.4629,206.5084 C59.0629,195.3134 54.1759,184.8534 46.4239,175.9564 C44.1809,173.3824 41.6349,171.0244 38.9929,168.8544 C36.0689,166.4524 32.5329,165.4644 28.7229,165.4474 C26.9409,165.4394 25.8699,166.1294 24.9059,167.7104 C23.0799,170.6964 20.9809,173.5274 18.8309,176.2964 C18.1359,177.1914 17.0089,177.8864 15.9369,178.3274 C14.1399,179.0664 12.8929,178.0884 13.0569,176.1754 C13.1309,175.3194 13.3949,174.4414 13.7529,173.6574 C15.6259,169.5614 18.6479,166.5434 22.7739,164.7864 C24.1619,164.1954 24.9519,163.3614 25.5439,162.0644 C28.4259,155.7454 30.0379,149.0934 30.8079,142.2244 C31.7669,133.6564 31.5169,125.1424 29.4269,116.7404 C28.7339,113.9564 27.8579,111.2274 26.1279,108.7764 C25.7239,108.8914 25.4109,108.9304 25.1459,109.0624 C21.2499,111.0044 17.6479,110.2724 14.4099,107.6614 C12.6149,106.2144 11.0279,104.4974 9.4349,102.8184 C6.6289,99.8614 3.8889,96.8434 1.1239,93.8484 C-0.2861,92.3204 -0.4171,91.9534 0.9999,90.4274 C3.0599,88.2104 5.2089,86.0514 7.5169,84.1004 C10.3449,81.7084 12.7709,81.6024 15.7479,84.0104 C18.8409,86.5114 21.7249,89.3024 24.4749,92.1814 C26.1119,93.8954 27.4849,95.9264 28.6739,97.9894 C30.4609,101.0914 31.3589,104.2974 27.9779,106.8564 C27.9779,107.2434 27.9179,107.4344 27.9869,107.5494 C31.5319,113.5654 32.6579,120.2204 33.2179,127.0444 C33.9699,136.2204 33.1529,145.2454 30.7179,154.1114 C30.0849,156.4164 29.1559,158.6394 28.3519,160.8954 C28.0879,161.6354 27.7919,162.3624 27.4149,163.3454 C28.1959,163.4094 28.7879,163.5104 29.3789,163.4994 C33.8159,163.4214 37.6729,164.9914 41.1179,167.6634 C46.0419,171.4824 49.8739,176.2824 53.3329,181.4104 C60.1829,191.5654 64.2619,202.8824 67.0269,214.6954 C70.4859,229.4714 71.9499,244.4904 71.7729,259.6544 C71.6639,268.9314 70.7789,278.1604 69.8049,287.3864 C68.6219,298.5914 67.3329,309.7994 67.3969,321.0954 C67.4779,335.4974 69.6819,349.5774 73.8649,363.3604 C78.0629,377.1954 82.1979,391.0494 86.3649,404.8944 C86.5869,405.6344 86.8359,406.3674 87.4519,407.0584 C87.5849,405.3474 87.7709,403.6394 87.8439,401.9264 C88.9129,376.8414 90.0639,351.7574 89.3449,326.6394 C88.9069,311.3754 88.2249,296.1204 86.6559,280.9254 C85.2369,267.1774 83.8889,253.4154 82.1089,239.7114 C80.6079,228.1514 78.5919,216.6554 76.6949,205.1494 C73.8229,187.7304 70.5909,170.3674 68.0199,152.9054 C66.2169,140.6634 65.1809,128.3054 63.9459,115.9844 C62.7629,104.1924 62.6579,92.3574 63.1289,80.5244 C63.7239,65.6014 66.3419,50.9894 70.4689,36.6614 C72.3899,29.9894 74.7379,23.4404 76.8829,16.8334 C77.2369,15.7434 77.8519,14.9284 78.7419,14.1464 C80.3549,12.7324 81.8639,11.1624 83.2059,9.4884 C84.4889,7.8894 86.1399,7.3584 88.0159,7.2124 C89.2099,7.1194 90.4129,7.1204 91.6129,7.1344 C92.5809,7.1444 93.0629,6.7174 93.2319,5.7664 C93.4959,4.2724 93.8469,2.7954 94.1499,1.3104 C94.2799,0.6724 94.3709,-0.0986 95.2249,0.0104 C96.2489,0.1404 96.0829,1.0364 95.9769,1.7184 C95.7679,3.0594 95.4459,4.3814 95.2059,5.7174 C95.1389,6.0924 95.1969,6.4894 95.1969,7.0694" id="Fill-1" blush:i="0.2.0.0.0"/></g></g></g><g id="Plant" transform="translate(931.000000, 102.000000) scale(1 1)" fill="#000" blush:width="287" blush:height="540" blush:component="Plant" blush:i="0.3" blush:value="Foliage Long" blush:viewBox="70.67105263157896 94.5 105.19736842105269 445.49999999999994"><g id="Plant/Foliage Long" stroke="none" stroke-width="1" fill="none" fill-rule="evenodd" blush:viewBox="70.67105263157896 94.5 105.19736842105269 445.49999999999994" blush:i="0.3.0"><g id="Group-3" transform="translate(73.000000, 96.000000)" fill="#000" blush:i="0.3.0.0"><path d="M68.8536,268.408 C69.4166,267.566 69.7336,267.123 70.0196,266.66 C74.3166,259.714 79.1106,253.137 84.5496,247.035 C87.7926,243.396 91.0316,239.753 94.1846,236.037 C95.7296,234.216 97.2086,232.309 98.4776,230.29 C100.0026,227.86 99.5446,225.992 96.9036,224.824 C93.4146,223.282 89.7656,222.086 86.1466,220.857 C84.6706,220.357 83.2786,220.879 82.2166,222.013 C81.2906,223.003 80.3896,224.03 79.5926,225.124 C75.1426,231.233 72.3506,238.076 70.9876,245.471 C70.0906,250.337 69.3796,255.244 68.7946,260.157 C68.4886,262.733 67.9346,265.367 68.8536,268.408 M13.3106,18.612 C10.1986,20.012 7.5446,21.761 4.9156,23.548 C4.6666,23.716 4.4086,23.996 4.3336,24.272 C3.8006,26.261 3.3356,28.266 2.8076,30.256 C2.0436,33.131 2.7956,35.984 2.9006,38.844 C3.0636,43.327 3.5916,47.776 4.8426,52.094 C6.6876,58.46 8.7366,64.768 10.5106,71.154 C13.0566,80.309 15.4556,89.506 17.8776,98.695 C22.4836,116.162 28.0596,133.315 34.4356,150.215 C39.0036,162.324 43.6856,174.381 49.2906,186.057 C49.4576,186.406 49.7296,186.703 50.0576,187.175 C50.1606,186.751 50.2506,186.592 50.2236,186.456 C48.6246,178.39 47.0726,170.314 45.3906,162.265 C43.4946,153.197 41.3716,144.176 39.5426,135.095 C37.0056,122.493 34.7646,109.831 32.1946,97.237 C27.4816,74.151 21.8056,51.288 15.9356,28.474 C15.1036,25.244 14.2206,22.028 13.3106,18.612 M51.3226,177.781 C51.4816,177.743 51.6406,177.705 51.7986,177.667 C51.6806,173.277 51.4096,168.885 51.4716,164.497 C51.6836,149.632 51.8666,134.764 52.3416,119.906 C52.7886,105.931 53.6416,91.97 54.2236,77.998 C54.8026,64.078 54.6306,50.185 51.9546,36.441 C50.6816,29.906 48.8756,23.523 45.5916,17.684 C42.6976,12.537 38.7656,10.603 32.9636,11.727 C28.9856,12.498 25.0896,13.747 21.2056,14.941 C19.3256,15.519 17.5576,16.464 15.6816,17.267 C15.7946,18.112 15.8196,18.745 15.9706,19.346 C19.9976,35.379 24.1726,51.376 28.0296,67.45 C31.0656,80.108 33.8216,92.838 36.4946,105.579 C38.6736,115.974 40.4466,126.455 42.5836,136.86 C44.9966,148.596 47.6186,160.29 50.1406,172.004 C50.5546,173.926 50.9296,175.855 51.3226,177.781 M12.6166,15.846 C11.5336,11.534 10.4716,7.444 9.4896,3.334 C9.0416,1.462 9.1336,1.367 10.5746,-5.68434189e-14 C10.9136,0.887 11.2716,1.632 11.4856,2.416 C12.4916,6.113 13.4536,9.822 14.4466,13.523 C14.5256,13.817 14.7206,14.08 14.9716,14.571 C17.1256,13.716 19.2296,12.844 21.3586,12.044 C25.3326,10.551 29.3936,9.409 33.6416,8.967 C39.3486,8.373 43.8316,10.334 46.9536,15.189 C50.2836,20.367 52.1606,26.144 53.6396,32.05 C55.3146,38.73 56.1676,45.544 56.6936,52.409 C57.6566,64.962 57.0236,77.488 56.3066,90.024 C55.7726,99.359 55.3716,108.706 55.1536,118.054 C54.7686,134.596 54.3826,151.143 54.3686,167.689 C54.3606,176.067 55.1346,184.447 55.6306,192.821 C55.7036,194.056 56.2006,195.264 56.4786,196.49 C56.5646,196.871 56.6556,197.281 56.6056,197.659 C55.9156,202.984 56.8916,208.194 57.8926,213.356 C59.9746,224.097 62.2736,234.797 64.4756,245.514 C65.0536,248.329 65.5976,251.15 66.1696,253.966 C66.2596,254.408 66.4126,254.838 66.8916,255.31 C67.0306,254.845 67.2316,254.388 67.2996,253.913 C68.2416,247.341 69.2986,240.807 71.8576,234.607 C73.8256,229.838 76.3976,225.464 79.6536,221.461 C81.8706,218.735 84.5396,217.648 87.9096,218.858 C91.3556,220.096 94.8846,221.2 98.1526,222.817 C101.8836,224.663 102.6726,227.66 100.5006,231.199 C98.9226,233.768 96.9776,236.133 95.0446,238.462 C89.8926,244.675 84.4586,250.665 79.5216,257.042 C75.9606,261.639 72.9936,266.7 69.8306,271.598 C69.4426,272.198 69.2756,273.097 69.3566,273.818 C70.7396,286.061 71.3956,298.345 71.4736,310.66 C71.5416,321.215 71.1836,331.754 70.2016,342.267 C69.6816,347.836 69.3736,353.428 68.6966,358.975 C67.5856,368.084 66.2676,377.167 65.0126,386.258 C63.6596,396.067 62.2156,405.865 60.9306,415.682 C60.0806,422.177 59.3726,428.69 58.7446,435.21 C58.5566,437.163 58.8166,439.166 58.9466,441.14 C58.9966,441.902 59.1076,442.685 58.2396,442.944 C57.3136,443.22 56.6526,442.638 56.4516,441.785 C56.2136,440.785 56.0616,439.736 56.0766,438.712 C56.1086,436.394 56.1696,434.07 56.3876,431.764 C57.7786,417.05 59.6506,402.395 61.7896,387.768 C63.5456,375.757 65.0496,363.704 66.4076,351.64 C68.4146,333.818 68.7966,315.918 68.1526,298.007 C67.5606,281.533 65.6916,265.203 62.1966,249.068 C59.8796,238.374 57.6296,227.661 55.6236,216.905 C54.6736,211.819 54.3796,206.612 53.7546,201.464 C53.6616,200.7 53.5346,199.866 53.1576,199.22 C44.7036,184.731 38.7266,169.13 32.8216,153.519 C29.0366,143.513 25.4036,133.427 22.2776,123.201 C18.4506,110.685 15.2646,97.973 11.7216,85.368 C9.3016,76.76 6.8836,68.145 4.2066,59.615 C1.5236,51.067 0.3076,42.328 0.0916,33.423 C0.0496,31.685 0.3896,29.928 0.6546,28.196 C0.7946,27.276 1.2956,26.496 0.3126,25.602 C-0.4044,24.95 0.2496,24.077 0.8976,23.573 C2.5356,22.298 4.1716,21.006 5.9076,19.873 C8.0396,18.481 10.2726,17.243 12.6166,15.846" id="Fill-1" blush:i="0.3.0.0.0"/></g></g></g><g id="Object" transform="translate(678.000000, 102.000000) scale(1 1)" fill="#000" blush:width="314" blush:height="182" blush:component="Object" blush:i="0.4" blush:value="Idea" blush:viewBox="120.88999999999999 0 92.62999999999991 155.3275862068965"><g id="Object/Idea" stroke="none" stroke-width="1" fill="none" fill-rule="evenodd" blush:viewBox="120.88999999999999 0 92.62999999999991 155.3275862068965" blush:i="0.4.0"><g id="Group-16" transform="translate(121.000000, 0.000000)" fill="#000" blush:i="0.4.0.0"><g id="Group-3" transform="translate(0.000000, 31.007000)" blush:i="0.4.0.0.0"><path d="M50.2639,89.5439 C49.4399,87.2749 47.7999,86.4549 46.0209,86.0079 C43.8879,85.4699 41.7059,84.9859 39.5189,84.8229 C34.2089,84.4269 29.0159,85.2019 23.9989,86.9949 C23.4379,87.1949 23.0339,87.8299 22.2319,88.5579 C23.5259,89.1209 24.3419,89.6059 25.2249,89.8419 C32.5759,91.8059 40.0119,92.0839 47.4929,90.7419 C48.4369,90.5729 49.3029,89.9719 50.2639,89.5439 M41.5119,110.4739 C43.6059,110.3479 45.5819,110.1949 47.5599,110.1239 C48.7249,110.0809 49.7989,109.9879 50.3259,108.5769 C49.1719,106.9269 48.5569,105.1969 50.3919,103.5179 C51.2529,102.7299 51.5209,101.8099 50.9099,100.7249 C50.2009,99.4659 49.1489,98.8989 47.7929,99.0689 C45.8899,99.3079 43.9889,99.5539 42.0839,99.7709 C40.5749,99.9429 39.0629,100.1019 37.5489,100.2169 C36.8679,100.2689 35.9609,100.5129 35.7789,99.5199 C35.5859,98.4669 36.5119,98.4639 37.2049,98.3569 C37.9929,98.2359 38.7899,98.1679 39.5839,98.0769 C42.5209,97.7399 45.4649,97.4499 48.3939,97.0509 C50.8049,96.7219 52.5899,94.3179 52.2379,92.0369 C41.5539,95.2449 34.5219,95.0709 21.2829,91.2499 C20.5829,92.1069 21.0639,92.8669 21.5129,93.6119 C22.0389,94.4839 23.0419,95.3579 23.0069,96.1959 C22.9719,97.0209 21.9099,97.8109 21.2729,98.5959 C20.5939,99.4349 20.0589,100.2829 20.5379,101.4299 C21.0039,102.5439 21.6909,103.3019 22.9999,103.3759 C25.3909,103.5099 27.7789,103.7049 30.1679,103.8629 C31.0179,103.9199 32.0049,103.7039 32.2019,105.3439 C31.4789,105.4669 30.7529,105.7159 30.0369,105.6899 C27.8039,105.6079 25.5699,105.4769 23.3449,105.2639 C21.0879,105.0489 19.4349,106.7669 20.4399,108.7399 C21.3669,110.5639 21.1069,111.8799 19.9649,113.3129 C19.8439,113.4629 19.9219,113.7719 19.9099,113.9869 C24.3809,117.4669 42.8619,116.8459 47.8649,113.0709 C47.7799,112.0929 47.1179,111.9699 46.3249,112.0149 C45.2869,112.0729 44.2479,112.1619 43.2099,112.1479 C42.4329,112.1389 41.5539,112.1299 41.5119,110.4739 M51.0139,86.0039 C51.3379,84.7969 51.5239,84.1999 51.6579,83.5909 C53.1879,76.6219 55.2959,69.8579 58.6039,63.4989 C61.0719,58.7539 63.6399,54.0499 65.8369,49.1809 C68.2219,43.8899 70.2589,38.5559 69.3869,32.3939 C68.6069,26.8889 67.2349,21.7439 64.0029,17.2309 C58.3929,9.3959 50.6769,4.8969 41.1559,3.7909 C27.6319,2.2209 16.5509,6.9589 8.5799,17.9459 C2.3799,26.4919 1.2029,36.0859 5.3559,45.9029 C8.1509,52.5129 11.7179,58.7759 15.8249,64.6859 C19.3539,69.7639 21.8869,75.1849 22.3269,81.4469 C22.3979,82.4549 22.6349,83.4499 22.8099,84.5499 C23.7229,84.3109 24.4149,84.1369 25.1019,83.9489 C29.6829,82.6979 34.3449,82.0609 39.0899,82.3229 C43.2189,82.5519 47.4519,82.5089 51.0139,86.0039 M52.0369,97.8339 C54.3299,101.7329 54.3299,101.7349 51.8079,105.8109 C52.0379,106.2449 52.4159,106.7029 52.5179,107.2169 C52.6669,107.9629 52.8979,108.8899 52.5979,109.4909 C51.7729,111.1429 50.6009,112.5699 50.1519,114.4789 C49.9799,115.2059 48.6229,115.7979 47.6949,116.1749 C45.7059,116.9819 43.6439,117.6079 41.4869,118.3529 C40.7219,121.3949 38.6369,122.8209 35.4509,122.9839 C32.3339,123.1439 30.1229,122.1129 29.3929,118.8979 C27.4099,118.6299 25.5889,118.4289 23.7849,118.1249 C22.6099,117.9269 21.4219,117.6859 20.3059,117.2769 C17.4479,116.2319 16.7569,114.3379 18.1399,111.6349 C18.2839,111.3549 18.4189,111.0679 18.6249,110.6479 C17.1259,108.4989 17.3869,106.3459 19.1479,104.1349 C17.0399,101.2079 17.5319,98.4919 20.3569,96.1779 C19.8699,95.4479 19.4509,94.8839 19.0999,94.2799 C18.4679,93.1919 18.1859,91.9639 18.7059,90.8229 C20.5109,86.8659 19.7999,82.8519 19.1569,78.8269 C18.1899,72.7769 15.0299,67.8149 11.2809,63.1719 C8.4119,59.6189 5.7279,55.9619 3.8009,51.7919 C-0.2101,43.1089 -1.3021,34.1589 1.7609,24.9969 C5.3009,14.4109 12.4989,7.1549 22.9309,3.3139 C36.3929,-1.6431 49.1029,-0.1061 60.3969,8.9629 C68.0119,15.0769 71.8179,23.2869 72.2389,33.1399 C72.6039,41.7039 70.0329,49.3489 65.7279,56.5599 C62.3679,62.1869 59.0859,67.8459 57.0739,74.1409 C55.5389,78.9419 54.3129,83.8079 53.7379,88.8219 C53.6879,89.2599 53.6279,89.8749 53.8679,90.1379 C55.6209,92.0579 54.6709,93.8579 53.6829,95.6299 C53.2609,96.3889 52.6409,97.0369 52.0369,97.8339" id="Fill-1" blush:i="0.4.0.0.0.0"/></g><path d="M89.7614,12.0885 C91.4434,13.1865 91.5294,13.3275 90.5834,14.5885 C89.7734,15.6705 88.8884,16.7175 87.9154,17.6535 C82.6864,22.6885 77.4254,27.6915 72.1564,32.6835 C71.5234,33.2825 70.8164,33.8385 70.0564,34.2565 C69.3404,34.6505 68.3654,34.8235 67.9464,33.9525 C67.7144,33.4705 68.0144,32.6455 68.2614,32.0535 C68.4304,31.6505 68.9224,31.3815 69.2734,31.0555 C75.8594,24.9085 82.4444,18.7615 89.0344,12.6205 C89.2594,12.4105 89.5324,12.2535 89.7614,12.0885" id="Fill-4" blush:i="0.4.0.0.1"/><path d="M2.4734,5.1705 C3.0694,5.8335 3.7284,6.3815 4.1574,7.0725 C8.1044,13.4335 12.0204,19.8145 15.9184,26.2065 C16.3684,26.9445 16.7394,27.7625 16.9664,28.5925 C17.0624,28.9435 16.8014,29.5945 16.4964,29.7945 C16.2014,29.9875 15.5264,29.9345 15.2224,29.7115 C14.6614,29.2985 14.1454,28.7445 13.7894,28.1435 C9.8944,21.5635 6.0284,14.9665 2.1694,8.3655 C1.5934,7.3815 1.1404,6.3545 2.4734,5.1705" id="Fill-6" blush:i="0.4.0.0.2"/><path d="M43.99,6.0973 C43.6,10.8693 43.224,15.6433 42.807,20.4133 C42.724,21.3623 42.558,22.3213 42.279,23.2273 C42.166,23.5933 41.569,24.1293 41.328,24.0663 C40.879,23.9493 40.292,23.5103 40.19,23.0983 C40.004,22.3463 40.066,21.5123 40.134,20.7213 C40.494,16.5053 40.901,12.2933 41.264,8.0773 C41.436,6.0893 41.502,4.0913 41.71,2.1063 C41.803,1.2153 41.716,-0.0897 43.092,0.0053 C44.468,0.0993 44.193,1.3493 44.162,2.2663 C44.121,3.5423 43.986,4.8153 43.89,6.0893 C43.924,6.0923 43.957,6.0953 43.99,6.0973" id="Fill-8" blush:i="0.4.0.0.3"/><path d="M28.613,66.9972 C29.314,63.8692 29.069,62.6242 27.503,61.2322 C26.552,63.3482 27.229,65.0232 28.613,66.9972 M44.024,69.0352 C40.298,74.1682 35.469,74.0072 30.33,72.0412 C29.393,73.5112 28.515,74.8882 27.626,76.2822 C26.348,75.7672 25.941,75.1592 26.432,74.1392 C26.814,73.3472 27.187,72.5502 27.611,71.7812 C28.133,70.8322 28.11,70.0742 27.302,69.2062 C25.977,67.7802 25.01,66.0562 24.886,64.0932 C24.81,62.8722 24.944,61.4872 25.467,60.4112 C26.428,58.4332 28.782,58.3892 29.839,60.3142 C30.467,61.4602 30.724,62.8592 30.918,64.1782 C31.091,65.3492 31.044,66.5772 30.915,67.7602 C30.777,69.0272 31.286,69.6782 32.424,70.0952 C34.856,70.9842 37.284,71.0922 39.657,70.0232 C41.994,68.9722 42.655,67.2502 41.993,64.7932 C41.708,63.7322 41.606,62.6022 41.584,61.5012 C41.576,61.1552 42.078,60.5362 42.387,60.5102 C42.843,60.4712 43.61,60.7292 43.759,61.0732 C44.199,62.0792 44.587,63.1792 44.648,64.2612 C44.738,65.8612 45.461,67.0062 46.667,67.8842 C48.708,69.3692 51.009,70.3202 53.525,70.4692 C54.574,70.5302 55.677,70.1262 56.714,69.7992 C57.363,69.5942 58.071,69.2812 58.343,70.0372 C58.501,70.4762 58.222,71.4092 57.847,71.6352 C56.926,72.1892 55.855,72.7272 54.81,72.8022 C51.23,73.0542 48.082,71.7392 45.203,69.7002 C44.944,69.5172 44.7,69.3112 44.441,69.1282 C44.381,69.0852 44.287,69.0912 44.024,69.0352" id="Fill-10" blush:i="0.4.0.0.4"/><path d="M29.7546,107.8751 C29.2466,106.6151 28.8116,105.8841 28.6546,105.0961 C27.0426,96.9711 25.4726,88.8371 23.8966,80.7051 C23.8366,80.3941 23.7346,80.0431 23.8216,79.7641 C23.9286,79.4191 24.1586,78.9531 24.4366,78.8671 C24.7096,78.7831 25.2966,79.0201 25.4196,79.2721 C25.8676,80.1961 26.3016,81.1591 26.5216,82.1551 C27.3236,85.8111 28.0766,89.4791 28.7746,93.1561 C29.4586,96.7571 30.0646,100.3731 30.6766,103.9861 C30.7966,104.6901 30.8966,105.4291 30.8056,106.1241 C30.7476,106.5691 30.3216,106.9671 29.7546,107.8751" id="Fill-12" blush:i="0.4.0.0.5"/><path d="M55.4065,77.6554 C54.6115,80.5174 53.9465,83.1404 53.1505,85.7234 C51.3685,91.5034 49.5205,97.2604 47.7005,103.0274 C47.6765,103.1024 47.6665,103.1824 47.6465,103.2594 C47.4365,104.0564 47.1685,104.9514 46.1225,104.6234 C45.2365,104.3444 45.4295,103.5094 45.6415,102.7874 C46.3595,100.3444 47.0495,97.8934 47.7855,95.4564 C49.5095,89.7444 51.2535,84.0384 52.9885,78.3284 C53.0805,78.0244 53.0655,77.6124 53.2635,77.4314 C53.6845,77.0484 54.2145,76.7834 54.6995,76.4694 C54.9615,76.9104 55.2235,77.3494 55.4065,77.6554" id="Fill-14" blush:i="0.4.0.0.6"/></g></g></g><g transform="translate(204.000000, 65.000000) scale(1 1)" blush:width="567" blush:height="577" id="Master/Character/Standing" blush:component="Master/Character/Standing" blush:i="0.5" blush:value="Standing" blush:viewBox="195.44755600814665 89.43499999999995 256.9399185336047 487.56499999999994"><g id="Master/Character/Standing" stroke="none" stroke-width="1" fill="none" fill-rule="evenodd" blush:viewBox="195.44755600814665 89.43499999999995 256.9399185336047 487.56499999999994" blush:i="0.5.0"><g id="Standing Body" transform="translate(122.000000, -7.000000) scale(1 1.0121317157712304)" blush:width="331" blush:height="584" blush:component="Standing Body" blush:i="0.5.0.0" blush:value="Stand" blush:viewBox="-0.2883275261324343 150.01999999999998 247.96167247386757 426.9799999999999"><g id="Standing Body/Stand" stroke="none" stroke-width="1" fill="none" fill-rule="evenodd" blush:viewBox="-0.2883275261324343 150.01999999999998 247.96167247386757 426.9799999999999" blush:i="0.5.0.0.0"><g id="Group" transform="translate(0.000000, 149.000000)" blush:i="0.5.0.0.0.0"><path d="M21,318.491288 L30.8413589,310.045146 L32.5939571,310.045146 L67.5849751,247.209596 L87.9869515,208.272975 C97.2983694,187.866394 102.609486,176.01705 103.920301,172.724943 C105.231117,169.432836 109.751326,152.363715 117.48093,121.51758 L150.783004,120.008465 L187.21473,123.470015 C201.270194,122.095116 208.506331,120.941266 208.92314,120.008465 C209.339949,119.075664 208.061512,195.23342 205.087831,348.481731 L208.92314,350.332352 L208.92314,360.244608 L148.12739,362 L148.12739,353.637103 L150.783004,353.637103 L155.543921,194.180651 L153.015967,194.180651 L127.688414,256.685368 L108.692005,290.654592 L77.3312263,341.846262 L78.5386384,344.985226 L71.5362484,353.637103 L21,321.50567 L21,318.491288 Z" id="Path-17" fill="#FFF" blush:i="0.5.0.0.0.0.0"/><path d="M149.507728,3 C149.507728,3 110.771207,7.46574228 105.601545,16.2587001 C101.254557,23.6534352 91.108005,48.5701875 91.108005,48.5701875 L83,57.0762423 C83,57.0762423 95.2761995,76.0284898 119.512109,70.5522001 C120.785337,70.2643732 117.475982,74.6642242 116.685268,83.4653808 C116.152223,89.398528 118.605052,98.8628015 117.401114,104.438528 C115.883064,111.468975 111.818518,116.746372 111.818518,116.746372 C111.505024,120.612165 154.984894,117.721042 190.399773,120.965956 C195.017325,121.389509 206.703476,117.721042 206.703476,117.721042 C206.703476,117.721042 208.266954,85.4393365 212.564023,74.2356153 C218.587308,73.9037492 227.87063,74.2356153 227.87063,74.2356153 C227.87063,74.2356153 230.266071,26.5764484 214.441595,13.9346405 C207.611611,8.47828282 196.673653,3.42355288 184.835747,3.33286274 C182.024282,8.94468929 182.009593,13.6695463 170.949432,13.9346405 C159.888273,14.1997348 152.569259,3 152.569259,3" id="Fill-1" fill="#FFF" blush:i="0.5.0.0.0.0.1"/><g id="Group-18" fill="#000" blush:i="0.5.0.0.0.0.2"><g id="Group-3" transform="translate(0.000000, 0.128000)" blush:i="0.5.0.0.0.0.2.0"><path d="M215.0947,74.0832 C218.4947,74.6052 221.6987,74.3972 224.9117,73.5542 C228.6077,72.5842 228.7777,72.4302 227.9907,68.7312 C227.9447,68.5172 227.7767,68.3272 227.5467,67.9102 C223.6317,70.0962 219.4657,71.5322 214.9207,72.0552 C214.9867,72.8222 215.0377,73.4232 215.0947,74.0832 L215.0947,74.0832 Z M84.5147,58.6692 C93.4897,68.8322 112.8737,73.5702 119.8377,70.6712 C120.2717,68.9342 120.7217,67.1292 121.2087,65.1812 C107.4917,67.0912 97.1607,61.7532 88.6777,51.6952 C86.6447,53.6332 85.9137,56.3062 84.5147,58.6692 L84.5147,58.6692 Z M153.7757,420.2122 C154.8397,423.9222 155.9177,424.3742 158.5487,422.3312 C159.6097,421.5072 160.3287,421.7752 161.2927,422.4672 C163.6357,424.1472 166.1417,424.4792 168.6397,422.7912 C169.6237,422.1262 170.5177,422.0692 171.5457,422.5822 C172.3297,422.9732 173.1357,423.3372 173.9637,423.6212 C175.8877,424.2802 177.6977,424.1352 179.4067,422.8832 C181.0587,421.6742 181.0957,421.7242 182.8607,423.0222 C185.5127,424.9762 187.5597,425.1172 190.3637,423.3552 C191.3687,422.7242 192.2167,422.5532 193.2117,423.2482 C195.1997,424.6382 197.2037,424.4522 198.9217,422.8922 C200.4187,421.5322 201.6437,421.4892 203.3667,422.5672 C205.9527,424.1842 208.8417,424.4352 211.5727,422.8842 C213.0267,422.0582 214.2017,422.1432 215.5867,422.9032 C219.4827,425.0462 223.4537,425.4322 227.4397,423.1042 C228.4677,422.5052 229.3817,422.5052 230.2597,423.3772 C232.3347,425.4392 234.7127,425.5622 237.3427,424.5772 C238.0237,424.3222 238.8957,424.3552 239.6297,424.5062 C242.7597,425.1452 244.1767,424.0872 244.4417,420.7352 C214.7357,419.9302 185.0117,421.3552 155.3157,419.9532 C154.8687,419.9322 154.4127,420.1002 153.7757,420.2122 L153.7757,420.2122 Z M48.4037,420.3142 C47.6057,419.3572 46.8017,418.3802 45.9807,417.4142 C43.1377,414.0682 40.1497,410.8342 37.4687,407.3632 C28.2467,395.4222 19.0817,383.4372 9.0207,372.1772 C6.9667,369.8782 4.8807,367.6082 2.5807,365.0722 C2.2457,366.0702 1.8687,366.6572 1.8957,367.2262 C1.9517,368.4032 2.0337,369.6522 2.4817,370.7122 C2.7197,371.2742 3.7177,371.5742 4.4257,371.8642 C5.4267,372.2752 5.7227,373.1002 6.1397,373.9982 C7.1627,376.2092 8.3497,378.3472 9.5387,380.4762 C9.7477,380.8502 10.2507,381.1502 10.6817,381.2932 C12.6627,381.9472 13.5887,383.3762 13.9387,385.3442 C14.1387,386.4622 14.5607,387.5262 15.7017,388.0412 C17.3467,388.7822 18.2757,390.0912 18.8957,391.7292 C19.4177,393.1062 20.2207,394.3782 21.7127,394.8052 C23.8537,395.4162 24.8657,396.8452 25.1367,398.9282 C25.3647,400.6772 26.2547,401.8162 27.9227,402.4802 C28.6217,402.7582 29.4897,403.3152 29.7197,403.9492 C30.7157,406.7012 32.5797,408.6672 34.8717,410.3342 C35.1207,410.5162 35.3087,410.8052 35.4747,411.0742 C36.3897,412.5532 37.7447,413.4492 39.2417,414.2892 C40.5297,415.0122 41.6697,416.0462 42.7537,417.0692 C43.9107,418.1622 44.9177,419.4122 46.0067,420.5782 C46.8097,421.4372 47.5937,421.5582 48.4037,420.3142 L48.4037,420.3142 Z M25.2507,338.5172 C35.3547,345.0562 44.1607,352.7622 54.5527,358.5342 C56.8567,355.1912 59.0647,351.9872 61.3787,348.6302 C60.1167,347.7752 59.0867,347.0492 58.0277,346.3652 C54.0067,343.7702 49.9347,341.2512 45.9597,338.5892 C41.4497,335.5672 37.0257,332.4192 32.5537,329.3412 C32.2457,329.1292 31.8547,329.0392 31.4167,328.8562 C29.3977,332.0192 27.4347,335.0942 25.2507,338.5172 L25.2507,338.5172 Z M207.7367,348.6052 C187.7277,349.8972 167.7517,351.1872 147.5897,352.4902 C147.4237,354.5202 147.2357,356.6622 147.0827,358.8062 C147.0557,359.1842 147.1777,359.5732 147.2717,360.2572 C167.4237,360.6352 187.4437,359.0252 207.7367,357.8232 L207.7367,348.6052 Z M20.6747,318.5022 C21.6327,319.3322 22.4047,320.1302 23.2977,320.7532 C26.8337,323.2152 30.4077,325.6222 33.9687,328.0492 C40.1017,332.2292 46.1987,336.4632 52.3807,340.5702 C57.6997,344.1042 63.1127,347.4992 68.4927,350.9402 C69.0127,351.2722 69.5987,351.5002 70.3667,351.8822 C72.7037,349.0062 75.2567,346.4182 77.1647,343.0582 C76.3887,342.4682 75.7937,341.9552 75.1407,341.5302 C73.6037,340.5302 71.9907,339.6402 70.4937,338.5832 C65.5337,335.0832 60.6077,331.5352 55.6797,327.9922 C52.6327,325.8022 49.6337,323.5452 46.5627,321.3902 C40.9487,317.4502 35.1157,313.7922 30.4857,308.6162 C30.3927,308.5122 30.1967,308.5012 29.6957,308.3152 C26.8037,311.5812 23.8207,314.9502 20.6747,318.5022 L20.6747,318.5022 Z M214.8357,202.6062 L215.3887,202.6622 C215.9077,200.1202 216.4877,197.5892 216.9367,195.0342 C219.1157,182.6412 219.0187,170.0682 219.7847,157.5652 C219.9657,154.6182 219.8677,151.6522 219.8397,148.6952 C219.7147,135.4992 220.3427,122.3292 221.3357,109.1802 C222.1177,98.8272 223.1337,88.4922 224.0317,78.1482 C224.0967,77.3962 224.0397,76.6332 224.0397,76.1662 L214.9347,76.1662 C214.2827,90.2292 212.2917,103.7612 208.4267,116.6652 C208.6427,117.9012 208.9647,118.8792 208.9587,119.8542 C208.9317,124.2502 208.7817,128.6442 208.7317,133.0392 C208.5097,152.7762 208.2747,172.5132 208.1227,192.2512 C208.0947,195.8342 208.3107,199.4322 208.6537,202.9992 C208.8407,204.9482 209.3497,206.9092 210.3937,208.6972 C210.9997,206.9552 211.4517,205.2592 211.6467,203.5332 C212.0497,199.9632 212.3077,196.3762 212.6457,192.7982 C212.7277,191.9242 212.8297,191.0442 213.0357,190.1952 C213.1127,189.8792 213.5117,189.6422 213.7637,189.3682 C214.0857,189.6672 214.5377,189.9112 214.6947,190.2812 C214.8707,190.6952 214.7987,191.2242 214.8017,191.7022 C214.8187,194.4202 214.8257,197.1372 214.8347,199.8542 C214.8377,200.7712 214.8357,201.6892 214.8357,202.6062 L214.8357,202.6062 Z M3.7777,363.3402 C4.4667,364.2082 4.8867,364.7832 5.3537,365.3162 C10.0377,370.6662 14.7357,376.0042 19.4167,381.3562 C20.4687,382.5602 21.5007,383.7822 22.4857,385.0392 C31.0137,395.9162 39.0517,407.1852 48.3617,417.4372 C48.9797,418.1182 49.6287,418.7712 50.3437,419.5222 C52.7407,417.0802 54.6027,414.6102 56.1997,411.9212 C57.4367,409.8402 57.9547,407.6162 57.5167,405.2522 C57.1847,403.4562 56.7377,401.6642 56.1447,399.9372 C54.9007,396.3142 53.5317,392.7342 52.2047,389.1402 C51.9417,388.4262 51.6397,387.7272 51.4457,387.2462 C50.1457,386.8952 48.8097,388.3262 48.0737,386.3912 C49.0117,385.9272 49.8407,385.5162 50.8147,385.0332 C50.3837,383.6282 49.9747,382.2952 49.5437,380.8892 C48.6257,381.0622 47.9387,381.2662 47.2467,381.2872 C46.9387,381.2962 46.4297,380.9882 46.3577,380.7292 C46.2797,380.4452 46.5077,379.8872 46.7677,379.7362 C47.4357,379.3532 48.1957,379.1292 48.6797,378.9372 C49.4217,372.3482 52.4297,366.7402 54.5317,360.7742 C43.5107,354.2932 33.7517,346.1892 22.9917,339.0082 C22.1397,340.9542 21.2687,342.7352 20.5697,344.5822 C18.3247,350.5062 14.7857,355.3692 9.4257,358.8872 C7.5057,360.1462 5.7977,361.7312 3.7777,363.3402 L3.7777,363.3402 Z M77.0527,202.8432 C77.1087,202.2832 77.1947,201.9832 77.1587,201.6992 C76.7927,198.7682 76.5357,195.8142 75.9957,192.9142 C75.1577,188.4202 74.6007,183.9052 74.6097,179.3402 C74.6127,177.8452 74.9117,176.3262 75.2677,174.8652 C75.5037,173.8972 75.8697,172.7332 77.2237,172.7972 C78.4907,172.8562 78.9107,173.8542 79.1497,174.9202 C79.3417,175.7762 79.4277,176.6612 79.6737,177.4992 C80.0697,178.8482 79.9577,180.3712 81.0797,181.8512 C81.1607,181.0512 81.2347,180.5882 81.2517,180.1222 C81.3947,176.2872 81.4997,172.4512 81.6817,168.6182 C81.7267,167.6792 81.8727,166.6952 82.2147,165.8272 C84.0557,161.1462 86.0307,156.5182 87.8537,151.8302 C93.0057,138.5842 98.1307,125.3272 103.2167,112.0562 C106.0737,104.5992 108.8237,97.1012 111.6387,89.6272 C113.3277,85.1442 115.0617,80.6772 116.7517,76.1942 C117.1007,75.2662 117.3457,74.2992 117.7237,73.0742 C111.9957,73.4762 106.8237,72.5152 101.7387,71.2102 C96.5517,69.8792 92.1277,66.7972 87.3957,64.0922 C85.9897,69.5542 84.6697,74.7302 83.3237,79.9002 C79.7867,93.4972 76.8347,107.2502 72.3257,120.5872 C69.1547,129.9692 66.0767,139.3832 63.0227,148.8042 C61.7187,152.8272 60.5657,156.9002 59.3727,160.9592 C58.5207,163.8552 57.4607,166.7222 56.9387,169.6802 C55.4527,178.1022 55.7077,186.5312 57.5167,194.8952 C57.9277,196.7932 58.5407,198.6462 59.0617,200.5212 C59.2587,200.4862 59.4557,200.4512 59.6537,200.4172 C59.5467,199.4362 59.4227,198.4562 59.3367,197.4742 C59.0587,194.2932 58.7697,191.1122 58.5407,187.9282 C58.4827,187.1082 58.2927,186.1112 59.8117,185.7562 C59.9957,186.3122 60.2337,186.8492 60.3477,187.4102 C61.1457,191.3192 61.8737,195.2432 62.7217,199.1422 C62.9997,200.4192 63.5697,201.6342 64.0057,202.8772 C64.1997,202.8232 64.3937,202.7702 64.5887,202.7152 C64.1197,200.2582 63.5327,197.8152 63.2167,195.3392 C62.8947,192.8162 62.7857,190.2612 62.7177,187.7172 C62.7047,187.2342 63.2387,186.4192 63.6627,186.3082 C64.6087,186.0612 64.7397,186.9972 64.9477,187.6722 C65.0167,187.8982 65.0047,188.1482 65.0577,188.3822 C65.7617,191.4962 66.3487,194.6452 67.2237,197.7112 C67.7447,199.5342 68.6797,201.2462 69.5187,202.9652 C69.7437,203.4262 70.2987,203.7262 70.7017,204.0992 C70.9627,203.0592 70.8637,202.2832 70.7047,201.5212 C69.7237,196.8182 68.9127,192.1002 69.1657,187.2652 C69.2007,186.5842 68.8767,185.6582 69.9177,185.5452 C70.8647,185.4402 71.3167,186.1282 71.4587,187.0242 C71.5587,187.6562 71.6697,188.2882 71.8267,188.9072 C72.7307,192.4662 73.5847,196.0392 74.5987,199.5662 C74.9557,200.8092 75.5737,202.0482 77.0527,202.8432 L77.0527,202.8432 Z M154.4937,369.8342 C156.2827,378.1022 157.3217,385.9872 157.3327,394.0082 C157.3437,402.1042 155.8947,410.0012 154.1557,418.0492 C155.2287,418.1492 155.9267,418.2502 156.6257,418.2742 C162.0557,418.4592 167.4867,418.7472 172.9187,418.7782 C182.5067,418.8352 192.0967,418.7002 201.6857,418.7052 C214.7907,418.7132 227.8947,418.7802 240.9987,418.811235 C241.9307,418.8132 242.8627,418.7282 243.7997,418.6832 C244.2407,417.1742 244.6357,415.8832 244.9937,414.5822 C247.2287,406.4632 244.3027,399.4782 237.0037,395.2712 C232.5937,392.7302 227.7327,391.4452 222.9227,390.0022 C221.2637,389.5052 219.5787,389.0962 217.8597,388.6342 C217.6297,389.1782 217.4467,389.5282 217.3307,389.8992 C216.9527,391.1182 216.6527,392.3652 216.1997,393.5562 C216.0737,393.8882 215.5277,394.0602 215.1747,394.3062 C214.9487,393.9332 214.5517,393.5652 214.5407,393.1872 C214.5257,392.6552 214.8027,392.1162 214.9477,391.5782 C215.2507,390.4462 215.5497,389.3132 215.9097,387.9582 C213.9537,387.4302 212.2367,386.9672 210.4187,386.4772 C210.2507,387.2052 210.1597,387.5852 210.0757,387.9662 C209.8017,389.2122 209.5727,390.4712 209.2267,391.6952 C209.1477,391.9722 208.5597,392.3732 208.3887,392.2992 C208.0327,392.1432 207.5947,391.7292 207.5587,391.3832 C207.5047,390.8582 207.7847,390.3062 207.8847,389.7582 C208.1087,388.5252 208.3087,387.2902 208.5207,386.0442 C205.9117,384.8662 203.5497,383.8012 200.9877,382.6442 C200.5447,384.4892 200.2837,386.1472 199.7327,387.7032 C199.2227,389.1462 199.3877,391.0542 197.4707,391.8522 C196.7067,390.6802 197.3187,389.7352 197.6407,388.7962 C199.9887,381.9442 199.8867,374.9862 198.5397,367.9802 C198.2397,366.4182 197.9047,366.2012 196.2097,366.3232 C195.0947,366.4022 193.9897,366.5942 192.8757,366.6992 C185.0877,367.4392 177.3027,368.2262 169.5067,368.8852 C164.6687,369.2932 159.8137,369.5052 154.4937,369.8342 L154.4937,369.8342 Z M113.6927,117.8232 C116.8747,117.8232 119.4977,117.9222 122.1127,117.8072 C134.9087,117.2432 147.6947,117.4732 160.4387,118.6672 C171.6127,119.7142 182.7897,119.7462 193.9767,119.3692 C197.8117,119.2402 201.5737,118.4532 205.1077,116.7812 C206.4447,116.1482 207.2337,115.3242 207.5397,113.8222 C208.3687,109.7562 209.4927,105.7462 210.2267,101.6652 C211.9547,92.0612 213.0547,82.3822 213.0617,72.6042 C213.0627,70.5262 212.9987,68.4482 212.9667,66.3702 C212.9537,65.4962 212.8247,64.5482 214.1287,64.4272 C215.2537,65.3712 214.7397,66.6702 214.8387,67.8032 C215.0127,69.7862 215.4587,70.3102 217.3287,69.8512 C219.4147,69.3392 221.4737,68.6682 223.4817,67.9002 C226.0457,66.9212 226.1307,66.6512 225.9287,63.9982 C225.4567,57.7842 225.0797,51.5622 224.5057,45.3582 C224.0197,40.1112 223.4077,34.8722 222.6817,29.6532 C221.3197,19.8592 215.5037,13.2492 206.9657,9.0072 C201.2317,6.1572 194.9127,4.8502 188.6697,3.4892 C187.5997,3.2562 186.4677,3.3092 185.2667,3.2222 C184.6757,5.0012 184.1777,6.6752 183.5647,8.3062 C181.9947,12.4912 179.0537,15.0732 174.5287,15.4522 C170.2407,15.8122 166.0677,15.2032 162.2277,13.1272 C161.2577,12.6042 160.3047,11.9202 159.5727,11.1042 C157.2927,8.5652 155.1217,5.9292 152.6847,3.0672 C151.4557,3.2742 149.7697,3.3942 148.1827,3.8552 C141.0327,5.9352 133.7087,7.1582 126.4057,8.5102 C122.0907,9.3082 117.7717,10.1302 113.5197,11.2002 C111.8777,11.6132 110.2547,12.5352 108.9077,13.5892 C106.2387,15.6782 104.1407,18.2842 102.9287,21.5312 C102.3147,23.1762 101.5517,24.7632 100.8857,26.3892 C97.8877,33.7022 94.9497,41.0422 91.8797,48.3252 C90.9377,50.5612 91.3757,52.2282 92.9707,53.9562 C95.9667,57.2022 99.6737,59.2642 103.5957,61.1552 C109.3837,63.9462 115.3087,64.5412 121.6207,63.1062 C121.7257,62.6402 121.8567,62.1872 121.9247,61.7272 C122.2517,59.5142 122.5107,57.2892 122.8997,55.0882 C123.0947,53.9802 123.1567,52.5922 125.1717,52.7542 C124.9697,54.0552 124.8227,55.2872 124.5827,56.5012 C123.6397,61.2742 123.0247,66.1502 121.6277,70.7882 C119.2457,78.6922 118.0917,86.7002 118.4787,94.9052 C118.7277,100.1992 117.8787,105.2102 115.9317,110.1232 C115.0057,112.4642 114.5057,114.9732 113.6927,117.8232 L113.6927,117.8232 Z M76.1137,340.2482 C77.6007,337.7462 78.8187,335.6082 80.1207,333.5232 C83.7567,327.6952 87.4897,321.9262 91.0647,316.0612 C93.6407,311.8352 96.0447,307.5032 98.4927,303.1992 C105.2077,291.3972 112.0227,279.6502 118.5677,267.7552 C122.9537,259.7822 127.2527,251.7322 131.0277,243.4592 C134.4697,235.9152 137.1237,228.0142 140.1777,220.2902 C145.5807,206.6242 150.9617,192.9482 156.4817,179.3282 C158.9617,173.2092 162.0507,167.6052 168.2057,164.0742 C171.9657,161.9182 176.0087,161.3912 179.9947,160.3562 C180.2697,160.2852 180.9077,160.6122 180.9387,160.8182 C180.9937,161.1992 180.8337,161.8752 180.5697,161.9912 C179.5117,162.4612 178.3947,162.8312 177.2667,163.1052 C176.5107,163.2892 175.6717,163.1382 174.9177,163.3272 C168.6117,164.9122 163.7747,168.4832 160.8527,174.3252 C158.9617,178.1062 157.4957,182.0982 155.6507,185.9032 C154.2747,188.7412 153.8257,191.6202 154.3427,194.6902 C154.4487,195.3162 154.5927,195.9372 154.6607,196.5652 C154.6997,196.9332 154.7737,197.4752 154.5747,197.6582 C153.7287,198.4382 153.9457,199.4162 153.9247,200.3502 C153.8197,204.9852 153.7177,209.6212 153.6317,214.2572 C153.2617,234.4022 152.8987,254.5482 152.5297,274.6932 C152.0837,298.9952 151.6327,323.2972 151.1927,347.6002 C151.1777,348.4352 151.2607,349.2712 151.3067,350.3202 C169.0437,349.2342 186.4847,348.5232 203.9507,346.6812 C205.0247,270.3752 206.0957,194.3012 207.1707,118.0012 C206.5307,118.1842 206.1447,118.2432 205.8047,118.3992 C201.0507,120.5802 195.9777,121.1882 190.8407,121.2572 C180.6867,121.3922 170.5377,121.4212 160.4067,120.4052 C148.3737,119.1992 136.2967,119.1982 124.2197,119.4412 C121.6697,119.4922 119.1227,119.6792 116.4257,119.8112 C116.0627,121.0122 115.6677,122.1342 115.3897,123.2852 C114.9777,124.9912 114.7047,126.7312 114.2767,128.4332 C111.9407,137.7262 109.6607,147.0342 107.1977,156.2942 C104.7117,165.6402 101.8907,174.9102 98.0997,183.8052 C93.9367,193.5722 89.4387,203.2052 84.8057,212.7612 C81.3227,219.9432 77.4077,226.9172 73.6617,233.9712 C69.5787,241.6612 65.4747,249.3402 61.3677,257.0172 C57.8267,263.6372 54.3337,270.2832 50.7037,276.8542 C46.2257,284.9602 41.5937,292.9812 37.1027,301.0812 C35.6987,303.6152 34.5387,306.2852 33.2407,308.9462 C34.3457,309.9632 35.2687,310.9802 36.3517,311.7812 C40.9697,315.1972 45.6257,318.5622 50.2847,321.9212 C57.4727,327.1042 64.6707,332.2742 71.8767,337.4332 C73.1617,338.3532 74.5097,339.1862 76.1137,340.2482 L76.1137,340.2482 Z M205.7777,346.4562 C209.8917,346.6642 210.0847,346.9292 209.8177,350.7742 C209.6687,352.9262 209.6717,355.0882 209.5927,357.2442 C209.5297,358.9262 209.3877,359.2222 207.6847,359.3922 C204.1867,359.7422 200.6737,359.9352 197.1667,360.2012 C196.3077,360.2672 195.4517,360.3632 194.5097,360.4532 C194.3847,361.3182 194.3477,362.0332 194.1547,362.7032 C194.0647,363.0152 193.6777,363.4372 193.4117,363.4472 C193.1267,363.4592 192.6517,363.0972 192.5657,362.8082 C192.3877,362.2122 192.4147,361.5562 192.3497,360.8292 C180.1227,361.3222 167.9467,361.8132 155.4637,362.3162 C155.5877,364.1462 155.7037,365.8622 155.8277,367.6832 C156.3957,367.7582 156.8547,367.8952 157.3027,367.8672 C163.6047,367.4682 169.9157,367.1632 176.2027,366.5982 C182.8857,365.9972 189.5457,365.1452 196.2157,364.4022 C196.6127,364.3572 197.0057,364.2662 197.4037,364.2472 C199.1707,364.1632 199.6737,364.5112 200.0097,366.3042 C200.8347,370.7082 201.4667,375.1352 201.1907,379.6402 C201.1757,379.8742 201.2257,380.1112 201.2697,380.6162 C203.2727,381.6312 205.3847,382.7012 207.7637,383.9072 C207.7637,382.9362 207.7037,382.3182 207.7937,381.7252 C207.8297,381.4832 208.1697,381.1622 208.4167,381.1142 C208.6587,381.0682 209.0857,381.2522 209.2077,381.4632 C209.5237,382.0082 209.8417,382.6062 209.9317,383.2172 C210.1017,384.3742 210.7827,384.8042 211.8317,385.0252 C213.1307,385.3012 214.4027,385.7032 215.6177,386.0322 C216.7207,384.3252 214.5857,382.7382 215.7377,381.0162 C218.0697,382.3832 217.4267,384.7492 218.1207,386.8322 C219.6827,387.2792 221.3637,387.7502 223.0377,388.2442 C228.3217,389.8042 233.6517,391.2182 238.4457,394.0982 C246.1187,398.7072 249.2527,406.6362 246.7067,415.2812 C246.0967,417.3492 245.6407,419.3492 246.1367,421.5752 C246.6207,423.7582 243.9807,426.6912 241.6837,426.4932 C239.5277,426.3072 237.4937,426.4302 235.3807,426.8772 C233.3487,427.3072 231.4377,426.5732 229.7967,425.2592 C229.4907,425.0142 229.1577,424.8052 228.7637,424.5282 C224.0987,427.3292 219.4497,426.8802 214.8357,424.4662 C214.1637,424.1142 213.5717,423.9332 212.8197,424.3432 C209.1667,426.3392 205.5947,425.8472 202.0937,423.8942 C201.8877,423.7792 201.6557,423.7122 201.1907,423.5232 C198.5677,426.0032 195.5237,426.8032 192.2247,424.7292 C186.8617,426.9402 186.0327,426.8952 180.9907,424.0542 C177.9787,426.4332 174.7267,426.0222 171.3977,424.4802 C170.9007,424.2502 170.0837,424.1772 169.6457,424.4312 C166.3397,426.3522 163.1997,425.6802 159.9547,423.9202 C159.4067,424.2412 158.8207,424.6312 158.1957,424.9432 C156.4807,425.8012 155.1917,425.6452 153.8327,424.2632 C152.4457,422.8542 151.6117,421.2762 152.0737,419.1122 C153.0237,414.6622 153.9237,410.1932 154.6057,405.6962 C156.1327,395.6442 155.7377,385.6182 153.7887,375.6482 C153.4677,374.0022 153.1377,372.3572 152.8287,370.7082 C152.6537,369.7762 152.3457,368.8512 153.5417,368.2202 C153.8587,368.0522 153.9747,367.2522 153.9557,366.7512 C153.8997,365.3202 153.7257,363.8942 153.5727,362.1652 C152.1477,362.1652 150.8167,362.1772 149.4867,362.1602 C148.7677,362.1522 148.0387,362.1622 147.3337,362.0482 C145.8697,361.8122 145.2427,361.2822 145.2717,359.8722 C145.3237,357.4002 145.4917,354.9202 145.8057,352.4692 C146.0337,350.6882 147.6477,350.4822 149.0517,350.1982 C149.6117,347.4962 152.3157,198.2742 151.7737,195.8612 C151.3417,196.6702 150.9577,197.2362 150.7177,197.8592 C147.2937,206.7262 143.8717,215.5932 140.4857,224.4742 C137.1567,233.2032 134.2027,242.0982 129.8487,250.3932 C125.0607,259.5152 120.0907,268.5422 115.1457,277.5812 C112.6157,282.2052 109.9907,286.7772 107.3727,291.3532 C102.2177,300.3662 97.1167,309.4122 91.8377,318.3542 C88.7937,323.5092 85.4287,328.4742 82.2407,333.5462 C81.0947,335.3712 80.0267,337.2482 78.9557,339.1192 C78.3867,340.1142 78.1847,341.1302 78.6667,342.2852 C78.8747,342.7822 78.8857,343.6402 78.5877,344.0262 C76.3487,346.9242 74.0287,349.7592 71.6957,352.5812 C70.7707,353.7002 69.7037,353.6222 68.5037,352.8822 C66.7427,351.7952 64.9077,350.8282 62.8647,349.6752 C62.2197,350.5952 61.5507,351.5482 60.8837,352.5022 C59.8767,353.9432 58.8477,355.3702 57.8727,356.8322 C57.0237,358.1062 55.7767,359.2072 56.3197,361.0702 C56.4637,361.5632 55.9427,362.2532 55.7167,362.8492 C54.1837,366.8792 52.6217,370.8972 51.1327,374.9442 C50.8157,375.8062 50.7617,376.7642 50.6007,377.6032 C50.9567,377.7902 51.0867,377.9162 51.2157,377.9172 C51.9457,377.9192 52.9277,377.0902 53.3367,378.1282 C53.8087,379.3272 52.4597,379.3722 51.8197,379.8462 C51.6947,379.9392 51.5847,380.0532 51.2647,380.3392 C51.6237,381.5652 52.0147,382.9032 52.4477,384.3812 C53.6987,383.9782 54.7617,383.6342 56.0037,383.2322 C56.1507,385.5602 54.0167,385.3182 53.0727,386.7592 C54.4697,390.5432 55.9937,394.5552 57.4277,398.5982 C58.0927,400.4732 58.6807,402.3872 59.1297,404.3232 C59.8257,407.3282 59.4397,410.2622 57.7247,412.8452 C56.0947,415.3012 54.3957,417.7512 52.4187,419.9242 C51.2457,421.2152 49.5347,422.0702 47.9577,422.9232 C46.8687,423.5122 45.7937,423.0752 44.9497,422.1442 C43.7687,420.8422 42.6217,419.4992 41.3457,418.2952 C40.3207,417.3272 39.2047,416.4012 37.9867,415.7062 C36.4987,414.8562 35.2247,413.8662 34.1697,412.5042 C33.4477,411.5742 32.5537,410.7322 31.6007,410.0372 C30.3877,409.1532 29.4777,408.1182 29.0277,406.6852 C28.5737,405.2342 27.7187,404.2072 26.2347,403.6342 C24.6147,403.0082 23.7347,401.6642 23.4837,399.9752 C23.2187,398.1842 22.5257,396.8982 20.6287,396.2852 C18.8487,395.7102 17.8917,394.1462 17.1977,392.4812 C16.6587,391.1902 15.9547,390.1142 14.6007,389.5032 C13.0817,388.8162 12.3927,387.4272 12.1397,385.8812 C11.8967,384.3942 11.1897,383.4492 9.7947,382.8392 C9.0247,382.5022 8.1987,381.9262 7.7777,381.2282 C6.3537,378.8752 5.0997,376.4212 3.6047,373.6842 C1.8237,373.3722 0.5597,372.0272 0.1727,369.7992 C-0.2793,367.2052 0.0997,364.7672 1.9807,362.8932 C3.8427,361.0392 5.8237,359.2322 8.0067,357.7872 C13.2197,354.3342 16.6947,349.6422 18.8717,343.8562 C19.6867,341.6942 20.6887,339.6042 21.6427,337.3932 C22.4187,337.2992 23.1927,337.2052 24.0957,337.0962 C26.0167,334.0712 27.9757,330.9872 30.0267,327.7582 C28.0577,326.3292 26.2707,325.0392 24.4907,323.7392 C23.0067,322.6562 21.5057,321.5932 20.0567,320.4652 C18.3777,319.1582 18.2957,318.4632 19.6627,316.9512 C22.6077,313.6942 25.5727,310.4552 28.5577,307.2352 C29.8847,305.8042 30.1317,305.7982 32.0787,306.7252 C33.1087,304.7582 34.1817,302.8062 35.1647,300.8112 C40.2557,290.4792 46.4387,280.7652 52.1097,270.7622 C54.3147,266.8722 56.2907,262.8532 58.3877,258.9012 C63.3307,249.5892 68.3267,240.3052 73.2197,230.9662 C78.1857,221.4842 83.2427,212.0432 87.9137,202.4172 C93.2857,191.3482 98.1177,180.0342 101.7617,168.2452 C105.0887,157.4792 108.1477,146.6462 110.5527,135.6302 C111.6757,130.4852 113.0877,125.4052 114.3877,120.2202 C114.0427,119.9922 113.8157,119.7902 113.5507,119.6742 C111.7867,118.9022 111.6787,118.8722 112.1317,117.0222 C112.7967,114.3122 113.4607,111.5812 114.4117,108.9642 C115.9307,104.7832 116.8177,100.5732 116.6837,96.0812 C116.5607,91.9372 116.8837,87.7792 117.0067,83.6282 C117.0177,83.2512 117.0077,82.8742 116.6857,82.3952 C116.4657,82.7742 116.1907,83.1342 116.0347,83.5382 C113.8817,89.1272 111.7387,94.7192 109.6047,100.3152 C105.0787,112.1792 100.6137,124.0652 96.0227,135.9032 C92.2407,145.6562 88.2587,155.3332 84.5007,165.0952 C83.8007,166.9132 83.5597,168.9662 83.4277,170.9322 C83.1727,174.7592 83.1457,178.6022 83.0187,182.4372 C83.0007,182.9962 82.9477,183.5542 82.9187,184.1132 C82.8737,184.9792 82.5727,185.8952 81.6737,185.8702 C81.0307,185.8522 80.0737,185.2632 79.8387,184.6902 C79.1457,183.0032 78.7087,181.2052 78.2357,179.4332 C77.9307,178.2912 77.7387,177.1192 77.4427,175.7072 C76.2617,176.6782 76.3787,177.8552 76.4387,178.8332 C76.6667,182.5772 76.9577,186.3232 77.3847,190.0502 C77.8377,194.0092 78.4997,197.9442 79.0077,201.8982 C79.1487,202.9932 79.2887,204.2702 77.9447,204.7862 C76.6147,205.2982 75.6067,204.5072 74.8347,203.5472 C74.0507,202.5712 73.4167,201.4752 72.4037,200.5032 C72.5527,201.6222 72.7597,202.7372 72.8327,203.8612 C72.8877,204.7022 73.1417,205.6942 72.1477,206.2232 C71.0327,206.8162 70.0947,206.2452 69.3467,205.5102 C68.6737,204.8482 68.1577,204.0182 67.6197,203.2302 C67.2267,202.6552 66.9077,202.0282 66.2587,201.5152 C66.3787,202.4912 66.5957,203.4702 66.5797,204.4432 C66.5707,205.0052 66.3257,205.8392 65.9267,206.0432 C65.4917,206.2662 64.5827,206.1012 64.1897,205.7542 C63.4387,205.0892 62.9007,204.1812 62.2867,203.3652 C62.0997,203.1172 61.9507,202.8402 61.7877,202.5802 C59.5027,203.7942 58.3547,203.3702 57.4397,200.8832 C55.9697,196.8842 55.2337,192.7102 54.7617,188.4962 C53.9137,180.9072 53.8447,173.3282 55.7787,165.8762 C56.6787,162.4062 57.8667,159.0102 58.9537,155.5902 C61.1297,148.7422 63.3277,141.9012 65.5137,135.0582 C68.6967,125.0932 72.1247,115.1982 74.9907,105.1442 C77.9437,94.7802 80.3467,84.2602 82.9947,73.8102 C83.7787,70.7132 84.5577,67.6142 85.3767,64.5272 C85.7307,63.1932 85.7067,62.0252 84.4297,61.1652 C84.1697,60.9902 83.9657,60.7272 83.7507,60.4892 C82.3957,58.9952 82.3517,58.8832 83.2667,57.1482 C84.2367,55.3122 85.2547,53.5002 86.2887,51.6992 C87.0177,50.4332 87.8367,49.2372 89.3907,49.3602 C93.3737,39.7432 97.3237,30.3162 101.1767,20.8502 C102.5737,17.4142 104.8427,14.6912 107.5507,12.2762 C108.9387,11.0382 110.5207,10.1912 112.4007,9.8172 C120.5427,8.1982 128.6797,6.5472 136.8017,4.8232 C141.8757,3.7452 146.9177,2.5142 151.9767,1.3592 C152.7347,1.1862 153.5007,1.0532 154.4067,0.8722 C155.0587,3.7082 156.9447,5.5922 158.5237,7.6622 C160.7407,10.5712 163.6397,12.4132 167.2757,13.0662 C169.7167,13.5052 172.1317,13.9512 174.6437,13.5692 C178.0227,13.0552 180.3847,11.3082 181.6627,8.1452 C182.1117,7.0362 182.4477,5.8832 182.8407,4.7522 C183.2547,3.5632 183.6777,2.3772 184.1437,1.0542 C185.7257,1.3162 187.1437,1.4742 188.5227,1.7962 C194.2687,3.1382 200.0977,4.1862 205.6207,6.3482 C209.8487,8.0022 213.3507,10.7262 216.6917,13.7662 C222.1507,18.7322 224.1277,25.2472 224.9007,32.1722 C225.9197,41.2982 226.5317,50.4692 227.3197,59.6202 C227.4227,60.8152 227.5517,62.0082 227.6417,63.2032 C227.7367,64.4522 227.5367,65.7812 229.0777,66.4442 C229.3987,66.5832 229.6007,67.2432 229.6647,67.6902 C229.8567,69.0332 230.0327,70.3872 230.0677,71.7402 C230.1177,73.6932 229.8597,74.1742 227.9567,74.6642 C226.3967,75.0662 226.0057,75.9472 225.8947,77.3922 C225.2747,85.5212 224.5587,93.6422 223.9197,101.7692 C223.2687,110.0542 222.3917,118.3332 222.1127,126.6312 C221.6917,139.0962 221.7237,151.5742 221.5237,164.0472 C221.4477,168.8342 221.1287,173.6202 221.1627,178.4052 C221.1957,183.2172 220.9397,187.9872 220.0977,192.7202 C219.1757,197.9072 218.4447,203.1512 216.1237,207.9722 C215.7667,208.7132 215.2357,209.3702 214.5197,210.4762 C213.8567,209.2832 213.4307,208.5182 212.9087,207.5802 C212.0197,209.0822 212.2027,211.2032 210.0177,211.8522 C209.4947,211.4272 208.9077,210.9492 208.0667,210.2672 C207.9477,211.5462 207.7747,212.6272 207.7567,213.7112 C207.5167,227.9372 207.2837,242.1642 207.0787,256.3912 C206.7297,280.6192 206.4047,304.8472 206.0597,329.0752 C205.9847,334.3522 205.8717,339.6282 205.7787,344.9042 C205.7697,345.3712 205.7777,345.8382 205.7777,346.4562 L205.7777,346.4562 Z" id="Fill-1" blush:i="0.5.0.0.0.0.2.0.0"/></g><path d="M197.4804,375.1145 C196.9654,375.5695 196.6544,376.0535 196.3654,376.0415 C196.0534,376.0275 195.6684,375.5935 195.5084,375.2525 C195.4484,375.1225 195.9134,374.5405 196.1654,374.5225 C196.5054,374.4985 196.8704,374.8185 197.4804,375.1145" id="Fill-4" blush:i="0.5.0.0.0.0.2.1"/><path d="M198.394,381.4671 C197.824,381.7791 197.488,382.1181 197.227,382.0681 C196.926,382.0101 196.519,381.6321 196.481,381.3501 C196.451,381.1241 196.95,380.5901 197.134,380.6241 C197.504,380.6931 197.82,381.0561 198.394,381.4671" id="Fill-6" blush:i="0.5.0.0.0.0.2.2"/><path d="M51.1079,365.6429 C50.6169,366.0169 50.2949,366.2619 49.9719,366.5079 C49.7739,366.2189 49.3999,365.9149 49.4239,365.6469 C49.4479,365.3699 49.8349,364.9559 50.1079,364.9179 C50.3459,364.8839 50.6459,365.2879 51.1079,365.6429" id="Fill-8" blush:i="0.5.0.0.0.0.2.3"/><path d="M49.3715,370.554 C48.9775,370.874 48.6875,371.283 48.4625,371.249 C48.1735,371.207 47.7665,370.831 47.7305,370.558 C47.7015,370.33 48.1265,369.847 48.3685,369.835 C48.6375,369.822 48.9275,370.213 49.3715,370.554" id="Fill-10" blush:i="0.5.0.0.0.0.2.4"/><path d="M122.5786,123.4241 L120.5946,123.1781 C120.6556,122.6851 120.7136,122.1941 120.7686,121.7031 L122.7566,121.9281 C122.7006,122.4241 122.6406,122.9231 122.5786,123.4241" id="Fill-12" blush:i="0.5.0.0.0.0.2.5"/><path d="M121.7211,129.3225 L119.7481,128.9945 C119.9091,128.0205 120.0601,127.0515 120.2001,126.0895 L122.1801,126.3765 C122.0381,127.3525 121.8851,128.3355 121.7211,129.3225 L121.7211,129.3225 Z M120.6471,135.1835 L118.6861,134.7915 C118.8801,133.8215 119.0661,132.8575 119.2421,131.8965 L121.2091,132.2585 C121.0311,133.2285 120.8431,134.2045 120.6471,135.1835 L120.6471,135.1835 Z M119.3881,141.0025 L117.4401,140.5515 C117.6621,139.5895 117.8771,138.6305 118.0841,137.6745 L120.0391,138.0975 C119.8301,139.0615 119.6131,140.0305 119.3881,141.0025 L119.3881,141.0025 Z M117.9691,146.7815 L116.0321,146.2795 C116.2801,145.3245 116.5201,144.3705 116.7541,143.4195 L118.6971,143.8975 C118.4611,144.8565 118.2181,145.8185 117.9691,146.7815 L117.9691,146.7815 Z M116.4111,152.5215 L114.4871,151.9765 C114.7561,151.0265 115.0191,150.0785 115.2761,149.1325 L117.2061,149.6555 C116.9481,150.6095 116.6821,151.5635 116.4111,152.5215 L116.4111,152.5215 Z M114.7341,158.2175 L112.8211,157.6335 C113.1081,156.6915 113.3901,155.7525 113.6671,154.8115 L115.5861,155.3765 C115.3071,156.3225 115.0231,157.2695 114.7341,158.2175 L114.7341,158.2175 Z M112.9501,163.8765 L111.0471,163.2595 C111.3511,162.3215 111.6521,161.3855 111.9471,160.4485 L113.8541,161.0505 C113.5571,161.9925 113.2561,162.9345 112.9501,163.8765 L112.9501,163.8765 Z M111.0671,169.5095 L109.1751,168.8605 C109.4941,167.9275 109.8101,166.9955 110.1231,166.0605 L112.0191,166.6955 C111.7061,167.6345 111.3881,168.5725 111.0671,169.5095 L111.0671,169.5095 Z M109.0961,175.1195 L107.2131,174.4435 C107.5471,173.5145 107.8771,172.5855 108.2051,171.6535 L110.0921,172.3175 C109.7631,173.2535 109.4301,174.1865 109.0961,175.1195 L109.0961,175.1195 Z M107.0441,180.7075 L105.1711,180.0065 C105.5171,179.0825 105.8611,178.1555 106.2021,177.2265 L108.0791,177.9165 C107.7371,178.8485 107.3911,179.7795 107.0441,180.7075 L107.0441,180.7075 Z M104.9291,186.2555 L103.0641,185.5325 C103.4191,184.6155 103.7741,183.6945 104.1261,182.7715 L105.9941,183.4845 C105.6411,184.4115 105.2851,185.3345 104.9291,186.2555 L104.9291,186.2555 Z M102.7501,191.7775 L100.8931,191.0335 C101.2591,190.1225 101.6231,189.2065 101.9861,188.2855 L103.8461,189.0195 C103.4821,189.9435 103.1161,190.8625 102.7501,191.7775 L102.7501,191.7775 Z M100.5141,197.2745 L98.6641,196.5125 C99.0381,195.6055 99.4121,194.6925 99.7851,193.7745 L101.6381,194.5285 C101.2631,195.4485 100.8881,196.3635 100.5141,197.2745 L100.5141,197.2745 Z M98.2271,202.7515 L96.3851,201.9735 C96.7661,201.0695 97.1491,200.1605 97.5311,199.2455 L99.3771,200.0145 C98.9931,200.9335 98.6101,201.8445 98.2271,202.7515 L98.2271,202.7515 Z M95.8951,208.2065 L94.0591,207.4115 C94.4481,206.5145 94.8371,205.6085 95.2281,204.6955 L97.0671,205.4805 C96.6751,206.3975 96.2841,207.3055 95.8951,208.2065 L95.8951,208.2065 Z M93.5231,213.6425 L91.6931,212.8365 C92.0871,211.9425 92.4831,211.0395 92.8811,210.1265 L94.7141,210.9265 C94.3151,211.8425 93.9181,212.7475 93.5231,213.6425 L93.5231,213.6425 Z M91.1171,219.0645 L89.2911,218.2485 L90.4961,215.5455 L92.3241,216.3555 L91.1171,219.0645 Z M88.6831,224.4725 L86.8621,223.6465 L88.0791,220.9495 L89.9041,221.7695 L88.6831,224.4725 Z M86.2821,229.7595 L84.4181,229.0265 L85.3721,229.3445 L84.4621,228.9305 L85.6381,226.3445 L87.4591,227.1735 L86.2821,229.7595 Z M83.5891,235.2395 L81.8121,234.3215 C82.2891,233.3975 82.7351,232.5195 83.1451,231.6895 L84.9381,232.5765 C84.5231,233.4165 84.0721,234.3055 83.5891,235.2395 L83.5891,235.2395 Z M80.7901,240.4975 L79.0331,239.5405 C79.5211,238.6455 79.9901,237.7765 80.4381,236.9365 L82.2021,237.8785 C81.7511,238.7235 81.2801,239.5965 80.7901,240.4975 L80.7901,240.4975 Z M77.9101,245.6985 L76.1661,244.7195 C76.6591,243.8415 77.1401,242.9775 77.6091,242.1345 L79.3581,243.1025 C78.8881,243.9505 78.4061,244.8155 77.9101,245.6985 L77.9101,245.6985 Z M74.9801,250.8645 L73.2451,249.8705 C73.7421,249.0015 74.2311,248.1435 74.7111,247.2985 L76.4501,248.2845 C75.9701,249.1325 75.4791,249.9935 74.9801,250.8645 L74.9801,250.8645 Z M72.0151,256.0085 L70.2861,255.0045 L71.7691,252.4385 L73.5021,253.4385 L72.0151,256.0085 Z M69.0241,261.1345 L67.2991,260.1225 L68.7951,257.5645 L70.5231,258.5725 L69.0241,261.1345 Z M66.0161,266.2415 L64.2941,265.2255 L65.7981,262.6765 L67.5201,263.6915 L66.0161,266.2415 Z M62.9851,271.3515 L61.2671,270.3285 L62.7831,267.7755 L64.5041,268.7955 L62.9851,271.3515 Z M59.9501,276.4455 L58.2331,275.4205 L59.7521,272.8755 L61.4701,273.8985 L59.9501,276.4455 Z M56.9061,281.5365 L55.1901,280.5095 L56.7121,277.9665 L58.4291,278.9915 L56.9061,281.5365 Z M53.8551,286.6235 L52.1401,285.5935 L53.6651,283.0515 L55.3801,284.0805 L53.8551,286.6235 Z M50.8061,291.7105 L49.0911,290.6825 L50.6161,288.1375 L52.3301,289.1675 L50.8061,291.7105 Z M47.7631,296.8005 L46.0451,295.7765 L47.5671,293.2275 L49.2841,294.2555 L47.7631,296.8005 Z M44.7331,301.8965 L43.0111,300.8795 L44.5251,298.3255 L46.2451,299.3465 L44.7331,301.8965 Z M41.7431,307.0125 L40.0091,306.0165 C40.4621,305.2295 40.9611,304.3685 41.5041,303.4415 L43.2301,304.4515 C42.6911,305.3745 42.1931,306.2295 41.7431,307.0125 L41.7431,307.0125 Z" id="Fill-14" blush:i="0.5.0.0.0.0.2.6"/><path d="M39.6821,310.7151 L37.9111,309.7851 C38.1131,309.4001 38.3551,308.9531 38.6331,308.4501 L40.3841,309.4171 C40.1141,309.9061 39.8791,310.3391 39.6821,310.7151" id="Fill-16" blush:i="0.5.0.0.0.0.2.7"/></g></g></g></g><g id="Head" transform="translate(275.000000, 91.000000) scale(1 1)" fill="#000" blush:width="35" blush:height="57" blush:component="Head" blush:i="0.5.0.1" blush:value="Curly Bob" blush:viewBox="-11.999185667752444 2.280000000000001 52.44299674267101 53.86499999999999"><g id="Head/Curly Bob" stroke="none" stroke-width="1" fill="none" fill-rule="evenodd" blush:viewBox="-11.999185667752444 2.280000000000001 52.44299674267101 53.86499999999999" blush:i="0.5.0.1.0"><g id="Group-19" transform="translate(-12.000000, 2.000000)" fill="#000" blush:i="0.5.0.1.0.0"><path d="M46.9601,21.1287 C48.1891,22.2707 47.5831,23.6797 46.8811,25.3117 C46.7551,25.6057 46.6281,25.9087 46.5071,26.2157 C46.7961,24.5107 46.5711,22.8837 45.6851,21.2507 C45.1101,20.1927 44.9851,19.0867 45.0331,17.8907 C45.3281,19.0597 45.8981,20.1407 46.9601,21.1287 M48.2421,31.6987 C49.3771,32.2047 50.6631,32.7787 50.9681,33.7187 C51.1191,34.1827 51.0211,34.7057 50.6671,35.3177 C49.7051,36.9877 50.3441,38.6897 50.9661,39.7417 C50.9591,39.7377 50.9521,39.7337 50.9441,39.7317 C49.3471,38.9587 49.2221,38.7027 49.6191,36.9627 C50.3311,33.8397 50.3311,33.8397 47.7291,32.0917 C45.7991,30.7947 45.4051,30.2507 45.9571,28.3127 C45.8951,29.0317 45.9861,29.7647 46.3731,30.4987 C46.6251,30.9767 47.3741,31.3117 48.2421,31.6987 M8.3961,27.5547 C7.9131,27.8367 7.4361,28.1307 6.9701,28.4397 C3.9001,30.4677 3.5131,31.5627 4.6141,35.0547 C5.2871,37.1907 5.2151,38.5387 4.2001,39.8567 C4.6611,38.7207 4.8621,37.5057 4.3961,36.4207 C1.8711,30.5537 4.1811,29.2817 7.3781,27.5207 C8.4811,26.9137 9.6211,26.2857 10.6741,25.4067 C10.8551,25.2557 11.0231,25.1007 11.1811,24.9427 C10.6451,26.0807 9.5861,26.8577 8.3961,27.5547 M40.5081,45.0337 C44.4961,44.0127 48.6181,43.3047 52.2541,40.4247 C52.1291,40.3587 52.0251,40.3027 51.9221,40.2467 C51.4241,39.6157 49.9801,37.5137 51.1011,35.5677 C51.5221,34.8357 51.6381,34.1617 51.4431,33.5637 C51.0701,32.4137 49.6761,31.7907 48.4461,31.2417 C47.7291,30.9217 46.9861,30.5907 46.8141,30.2647 C45.9791,28.6767 46.6711,27.0667 47.3411,25.5087 C48.0521,23.8547 48.7871,22.1447 47.3001,20.7627 C45.4271,19.0217 45.2001,16.9907 45.2541,14.5317 C45.2801,13.9537 45.3031,13.3757 45.3131,12.7957 C45.3641,11.5327 45.4091,10.2257 45.3061,8.7947 C45.2821,8.4677 45.2341,8.1517 45.1681,7.8477 C44.7661,4.2397 42.0761,1.0087 38.4951,0.5957 C35.8471,0.2897 33.0161,0.4627 30.4241,0.6237 C27.7581,0.7887 25.0771,1.5457 22.7281,2.8757 C19.3951,4.7647 17.3361,6.4187 14.6961,13.2987 C14.2361,14.4957 14.0481,15.7767 13.7761,17.0247 C12.3831,17.5137 11.5081,18.8807 11.5791,20.8297 C11.5911,21.1587 11.6311,21.4737 11.6851,21.7807 C11.5921,22.2667 11.5271,22.7157 11.5401,22.8897 C11.5501,23.0247 11.5361,23.1437 11.5351,23.2717 C11.2071,23.8097 10.7751,24.3447 10.1931,24.8307 C9.1961,25.6637 8.0881,26.2737 7.0161,26.8637 C3.8781,28.5917 0.9131,30.2247 3.7061,36.7177 C4.3561,38.2277 3.3731,40.1707 2.3921,41.5787 C1.7031,42.1227 1.0421,42.7387 0.0281,43.6137 C4.4221,46.5977 9.0381,46.7707 13.4121,47.0077 C13.1771,48.2317 12.9451,49.4557 12.6911,50.6777 C12.5141,51.5317 12.6671,52.4557 12.6671,53.4127 C14.2401,53.3577 14.1801,52.3827 14.3571,51.5577 C16.0231,43.8237 17.3001,36.0307 18.0011,28.1477 C18.2201,25.6827 18.1921,25.6087 15.8231,24.3817 C14.0001,23.4377 12.9421,21.4087 13.5931,19.8587 C13.8141,19.3307 14.3561,18.6787 14.8401,18.5947 C15.2711,18.5197 15.8711,19.0997 16.3071,19.4917 C16.5871,19.7427 19.0381,22.4737 19.5371,22.7697 C19.6081,22.6247 19.5761,22.3427 19.5061,22.0177 C19.4471,19.8077 19.6641,16.7507 20.1001,15.5457 C21.2431,12.3857 23.4881,11.4737 26.6261,10.3297 C30.2421,9.0117 33.6161,5.9127 35.8861,4.6977 C36.4991,5.1047 37.1541,5.7167 37.9311,6.0217 C40.3881,6.9837 41.7251,8.8487 42.4451,11.2637 C42.5951,11.7617 42.7231,12.2667 42.8481,12.7737 C42.8171,13.5037 42.7761,14.2327 42.7091,14.9577 C42.1081,21.4887 41.2511,27.9817 38.3041,33.9767 C36.9461,36.7377 35.5231,37.3517 32.5011,36.4207 C30.2761,35.7347 28.1561,34.8267 26.3591,33.2807 C25.8451,32.8387 25.2001,32.0937 24.5541,32.9497 C23.9641,33.7307 24.7181,34.2967 25.2771,34.7087 C26.2371,35.4157 27.2191,36.1237 28.2771,36.6597 C30.9311,38.0037 33.6941,38.9797 36.7191,38.4207 C36.9951,39.2287 37.2281,39.8217 37.4021,40.4307 C38.4601,44.1137 39.4821,47.8067 40.5691,51.4807 C40.8391,52.3927 40.7761,53.5947 42.6721,54.0687 C42.5271,52.9757 42.5131,52.2047 42.3151,51.4847 C41.7241,49.3317 41.1151,47.1827 40.5081,45.0337" id="Fill-17" blush:i="0.5.0.1.0.0.0"/></g></g></g><g id="Face" transform="translate(289.000000, 103.000000) scale(1 1)" fill="#000" blush:width="18" blush:height="18" blush:component="Face" blush:i="0.5.0.2" blush:value="Goofy" blush:viewBox="-1.0799999999999983 0 18.629999999999995 14.670000000000003"><g id="Face/Goofy" stroke="none" stroke-width="1" fill="none" fill-rule="evenodd" blush:viewBox="-1.0799999999999983 0 18.629999999999995 14.670000000000003" blush:i="0.5.0.2.0"><g id="Group-23" transform="translate(-1.000000, 0.000000)" fill="#000" blush:i="0.5.0.2.0.0"><path d="M8.7233,0.1249 C9.3823,0.8079 8.7923,2.8659 8.2713,3.0659 C6.7873,3.6359 2.2503,3.5029 0.1243,6.7559 C0.3143,5.6829 0.5983,4.2539 1.9633,3.3609 C3.9663,2.0509 7.4063,2.3699 8.7233,0.1249" id="Fill-1" blush:i="0.5.0.2.0.0.0"/><path d="M8.81325468,0.0381062464 L8.61548299,0.0616505555 C8.03597228,1.0495029 7.21174692,1.50712172 5.37757121,2.02425664 L3.94799062,2.41082907 C2.96370036,2.6895016 2.43550214,2.90271071 1.89488117,3.25628708 C0.734914175,4.01515193 0.312848833,4.97419254 0.00121477912,6.73410485 C-0.0225019433,6.86804192 0.154521721,6.93814508 0.228935366,6.8242845 C1.05303986,5.56331935 2.28715159,4.73690856 3.91691432,4.19483053 C4.35660095,4.04858565 4.81400928,3.92595528 5.32226596,3.81360175 L5.90180986,3.69438393 C6.38047834,3.60322727 7.25504854,3.44704634 7.28618847,3.44115068 L7.65764719,3.36638299 C7.93690626,3.30586156 8.14499964,3.24831516 8.31611969,3.18258845 C9.00899484,2.91660951 9.46762863,0.71631172 8.81325468,0.0381062464 Z M8.73,0.349 L8.75103039,0.385755539 C9.09173298,1.09410048 8.70506061,2.7654955 8.22650267,2.94920296 C8.06810849,3.01004169 7.86947633,3.06477301 7.59964219,3.12312735 L5.66408599,3.48598929 C4.98518007,3.62290901 4.39843513,3.77120498 3.83801148,3.9576084 L3.52786292,4.06586546 C2.20417046,4.55049872 1.14449967,5.23904668 0.356,6.221 L0.399372111,6.03061924 C0.690796888,4.79952474 1.11745114,4.06363823 2.03173301,3.46550365 C2.54732777,3.1282949 3.06050913,2.92170834 4.02556647,2.64874125 L5.45923854,2.26100135 C7.17428759,1.77660227 8.04387406,1.33507148 8.65435076,0.464157783 L8.73,0.349 Z" id="Stroke-3" fill-rule="nonzero" blush:i="0.5.0.2.0.0.1"/><polygon id="Fill-5" points="10.5104 5.8837 12.0214 11.8577 9.8194 12.0777" blush:i="0.5.0.2.0.0.2"/><path d="M9.69517066,12.063841 L9.83182678,12.2020808 L12.0338268,11.9820808 L12.1425838,11.8270491 L10.6315838,5.85304905 C10.5974613,5.71813968 10.4015993,5.73154119 10.3861707,5.86984103 L9.69517066,12.063841 Z M10.558,6.581 L11.864,11.747 L9.96,11.938 L10.558,6.581 Z" id="Stroke-7" fill-rule="nonzero" blush:i="0.5.0.2.0.0.3"/><path d="M9.235,14.6522 C8.913,14.6522 8.603,14.6002 8.306,14.4962 C7.05,14.0512 6.507,12.8322 6.485,12.7802 C6.449,12.6952 6.487,12.5962 6.572,12.5592 C6.657,12.5222 6.756,12.5612 6.793,12.6462 C6.797,12.6582 7.303,13.7872 8.422,14.1802 C9.165,14.4422 10.015,14.3272 10.95,13.8392 C11.032,13.7962 11.133,13.8282 11.176,13.9102 C11.219,13.9922 11.187,14.0932 11.105,14.1362 C10.446,14.4802 9.82,14.6522 9.235,14.6522" id="Fill-9" blush:i="0.5.0.2.0.0.4"/><path d="M5.5778,8.8182 C4.4998,8.8832 3.4308,8.4252 2.7238,8.0292 C2.1858,7.7272 1.7698,7.4152 1.5638,7.2502 C1.9208,6.9382 2.9718,6.1322 4.5188,5.8772 C4.4698,6.0632 4.4398,6.3022 4.4398,6.4602 C4.4398,7.3692 5.2798,8.1052 6.3158,8.1052 C7.3248,8.1052 8.1468,7.4082 8.1908,6.5342 C8.5118,6.7002 8.7588,6.8562 8.9018,6.9532 C8.5468,7.3822 7.3128,8.7112 5.5778,8.8182 M9.2438,6.7832 C9.1748,6.7302 7.5108,5.4872 5.5578,5.4632 C2.8738,5.4282 1.2568,7.0702 1.1888,7.1392 C1.1568,7.1722 1.1408,7.2162 1.14175586,7.2622 C1.1438,7.3082 1.1648,7.3512 1.1988,7.3812 C1.2208,7.4012 1.7478,7.8652 2.5528,8.3172 C3.2508,8.7102 4.2868,9.1602 5.3658,9.1602 C5.4428,9.1602 5.5208,9.1582 5.5988,9.1532 C7.8228,9.0152 9.2218,7.0962 9.2788,7.0142 C9.3318,6.9412 9.3168,6.8392 9.2438,6.7832" id="Fill-11" blush:i="0.5.0.2.0.0.5"/><path d="M5.55933598,5.33820944 C7.06802287,5.35674937 8.46022785,6.02370663 9.31988246,6.68402108 C9.44624936,6.78096006 9.47304468,6.95941691 9.38143866,7.08554638 C9.20039895,7.34598947 8.82316459,7.76589188 8.3294509,8.16035735 C7.52400592,8.8038887 6.61100399,9.21563279 5.60679641,9.27794397 C5.52965281,9.28288907 5.44979734,9.2852 5.3658,9.2852 C4.41357776,9.2852 3.4310466,8.95513692 2.49160093,8.42619392 C1.87404792,8.07944365 1.36101616,7.69760183 1.1160973,7.47492973 C1.0565008,7.42234459 1.02042091,7.34745181 1.01671536,7.26479688 C1.0151298,7.18524543 1.04387954,7.10908914 1.09976885,7.05145916 C1.33871234,6.8090018 1.71350427,6.50517652 2.25950344,6.19348579 C3.13993597,5.69087944 4.14236601,5.37753013 5.25366037,5.34118819 L5.55933598,5.33820944 Z M5.55617011,5.58818937 C4.36994242,5.57272068 3.3072545,5.88323113 2.3834456,6.41059945 C1.85945902,6.70972401 1.50188745,6.99958959 1.27853755,7.22621823 C1.27072003,7.23428005 1.26643836,7.24562193 1.26662629,7.25665074 C1.26715017,7.26829745 1.27260421,7.27961865 1.2828841,7.28870749 L1.4757727,7.45141193 C1.7424329,7.66374824 2.14746624,7.94625227 2.6141271,8.20827807 C3.51957337,8.71807805 4.46358141,9.0352 5.3658,9.0352 C5.44469155,9.0352 5.51926254,9.033042 5.59105859,9.02843995 C7.22392864,8.92711977 8.5125196,7.8975663 9.1776481,6.94076095 C9.1908166,6.92262321 9.18699428,6.89716656 9.1676556,6.88233138 C8.39825314,6.29134108 7.16494419,5.68660565 5.82546868,5.5987193 L5.55617011,5.58818937 Z M4.49846994,5.75386432 L4.63967589,5.90904365 C4.59508574,6.07830422 4.5648,6.30669763 4.5648,6.4602 C4.5648,7.29603994 5.34521946,7.9802 6.3158,7.9802 C7.20555673,7.9802 7.93952505,7.40454898 8.05255251,6.66082264 L8.0659581,6.52791505 L8.24821845,6.42316793 C8.45740573,6.53134577 8.64935276,6.64220952 8.81517925,6.74713157 L8.97196999,6.84975353 L8.99810309,7.03289137 C8.16594268,8.03851621 6.99971441,8.85574593 5.58532344,8.94297339 C4.63532624,9.00025522 3.63266779,8.6815412 2.66261356,8.13820101 C2.30043995,7.93489909 1.97023878,7.7157976 1.68804694,7.50445061 L1.48565538,7.34776238 L1.48154293,7.15607893 C2.20968604,6.51971857 3.23470125,5.96217785 4.49846994,5.75386432 Z M1.83820377,7.30456329 C2.04357989,7.45835767 2.27553085,7.616652 2.52707212,7.76949065 L2.78488482,7.92014201 C3.71686164,8.44215449 4.67682993,8.74729863 5.57010568,8.69343703 C6.81631747,8.61658132 7.87312407,7.92580477 8.65319781,7.05083184 L8.713,6.98 L8.51295048,6.85528162 L8.292,6.73 L8.27692496,6.81793931 C8.09989663,7.58363124 7.36620148,8.16271786 6.47468377,8.22469757 L6.3158,8.2302 C5.21393367,8.2302 4.3148,7.44196831 4.3148,6.4602 C4.3148,6.37257045 4.32308038,6.26631097 4.33761109,6.15823316 L4.357,6.035 L4.24086651,6.0573332 C3.26266279,6.26897479 2.44573774,6.69869617 1.82602018,7.19393609 L1.763,7.246 L1.83820377,7.30456329 Z" id="Stroke-13" fill-rule="nonzero" blush:i="0.5.0.2.0.0.6"/><path d="M14.7897,8.3964 C13.3837,8.4974 11.9767,7.3154 11.5587,6.9304 C11.6477,6.8524 11.7837,6.7404 11.9597,6.6144 C12.1597,7.2514 12.7157,7.7704 13.3797,7.7704 C14.2127,7.7704 14.8887,7.0944 14.8887,6.2604 C14.8887,5.9904 14.8437,5.7694 14.7347,5.5704 C14.8417,5.5624 14.9487,5.5584 15.0587,5.5584 L15.0597,5.5584 C16.1617,5.5584 17.1657,6.3564 17.4797,6.6334 C17.2047,7.0244 16.2037,8.2944 14.7897,8.3964 M17.8177,6.4884 C17.7667,6.4364 16.5257,5.2234 15.0597,5.2234 L15.0587,5.2234 C12.7797,5.2234 11.2577,6.7464 11.1937,6.8104 C11.1307,6.8754 11.1307,6.9794 11.1937,7.0444 C11.2117,7.0634 11.6437,7.5034 12.3027,7.9334 C13.1117,8.4614 13.9097,8.7374 14.6227,8.7374 C14.6867,8.7374 14.7507,8.7354 14.8137,8.7304 C16.6477,8.5994 17.7947,6.7724 17.8427,6.6954 C17.8837,6.6284 17.8737,6.5424 17.8177,6.4884" id="Fill-15" blush:i="0.5.0.2.0.0.7"/><path d="M15.0597,5.0984 C16.210087,5.0984 17.2793454,5.76097119 17.9044669,6.39841946 C18.0028215,6.49326134 18.0208071,6.64382665 17.9487771,6.76152599 C17.3173074,7.7745087 16.2598877,8.75241935 14.8235895,8.85500817 C14.7600387,8.86005189 14.693509,8.8624 14.6227,8.8624 C13.8826721,8.8624 13.0617029,8.5780361 12.2343923,8.03808552 C11.8556413,7.79094905 11.5303157,7.53064551 11.2792163,7.29984838 L11.1039415,7.13139666 C10.9939528,7.01791623 10.9939528,6.83688377 11.1053117,6.72201165 C11.3343624,6.49296094 11.6872258,6.20536295 12.189245,5.91018392 C12.9655663,5.45371976 13.8241991,5.16134611 14.7482743,5.10743603 L15.0597,5.0984 Z M15.0597,5.3484 L14.7633613,5.35704072 C13.881074,5.40859577 13.0599394,5.6882434 12.3159597,6.12569118 C11.8343443,6.4088731 11.4972935,6.68358315 11.2834585,6.89739666 C11.2727843,6.90840971 11.2692262,6.9240663 11.2724368,6.93782132 L11.2822858,6.95620956 L11.3139365,6.98801058 C11.5667381,7.23703442 11.9319232,7.54221016 12.371019,7.82872185 C13.1603651,8.34389459 13.9355502,8.6124 14.6227,8.6124 C14.6872244,8.6124 14.7472342,8.61028201 14.8047941,8.60571766 C16.1376182,8.51051594 17.1441977,7.5796228 17.7360791,6.63015439 C17.7468213,6.61260004 17.7442699,6.5912411 17.7284577,6.57592608 C17.1828736,6.01964428 16.2587246,5.43244357 15.2719867,5.3566225 L15.0597,5.3484 Z M15.0597,5.4334 C15.9024171,5.4334 16.7201997,5.84528399 17.3963685,6.39855483 L17.5623928,6.53966156 L17.581944,6.70531076 C16.9144751,7.65433029 15.9617948,8.43717482 14.7986563,8.52107873 C13.7143391,8.59897064 12.6046481,8.00896882 11.660567,7.18922525 L11.4740155,7.02234314 L11.4763122,6.83639337 C11.5527892,6.76936852 11.6399323,6.69789004 11.7361063,6.62434071 L11.886936,6.51276141 L12.0789599,6.57695576 C12.2737483,7.19735662 12.8023057,7.6454 13.3797,7.6454 C14.1438062,7.6454 14.7637,7.02522252 14.7637,6.2604 C14.7637,6.05416918 14.7360127,5.88617355 14.6761083,5.73807713 L14.6250685,5.63044942 L14.7253802,5.44574792 C14.8359845,5.43747844 14.9461023,5.4334 15.0597,5.4334 Z M15.0597,5.6834 L14.921,5.686 L14.9545717,5.7811933 C14.9814657,5.87689139 14.9987803,5.97871773 15.0073351,6.08880554 L15.0137,6.2604 C15.0137,7.1632681 14.281903,7.8954 13.3797,7.8954 C13.2871212,7.8954 13.1958765,7.88606729 13.1067211,7.86818726 L13.072,7.86 L13.1628676,7.90677628 C13.6302691,8.13448258 14.1102212,8.27243571 14.5800413,8.27771127 L14.7807064,8.27172396 C15.7774831,8.19982069 16.6284622,7.55035862 17.2482208,6.73792543 L17.31,6.653 L17.2274457,6.58350207 C16.6509277,6.11489183 15.9646186,5.7544142 15.2686727,5.69274562 L15.0597,5.6834 Z" id="Stroke-17" fill-rule="nonzero" blush:i="0.5.0.2.0.0.8"/><path d="M10.651,0.4657 C10.053,1.2017 10.818,3.2017 11.355,3.3577 C12.881,3.7967 15.963,3.3577 18.361,6.4147 C18.081,5.3627 18.343,4.2537 16.907,3.4827 C14.798,2.3487 12.158,2.5887 10.651,0.4657" id="Fill-19" blush:i="0.5.0.2.0.0.9"/><path d="M10.7529304,0.393345294 L10.5539857,0.386875922 C9.96006218,1.11785877 10.6064436,3.27040993 11.3201288,3.47773748 C11.5257835,3.5369006 11.7448708,3.58002383 12.0675536,3.62670774 L13.0335782,3.75542611 C14.4388763,3.95028985 15.0771788,4.11852411 15.9799038,4.57901321 C16.8314603,5.01340073 17.5901129,5.63449246 18.2626488,6.49184952 C18.3465388,6.59879349 18.5167542,6.51389761 18.4817946,6.38254935 C18.4580674,6.29340273 18.4374805,6.2008371 18.4182896,6.09856418 L18.366759,5.78219342 L18.344992,5.6292046 C18.1729402,4.40811625 17.9187948,3.88406332 16.9661298,3.37256978 C16.4372489,3.08819283 15.905319,2.89036633 15.0945074,2.65502962 L14.4813891,2.48287773 C12.387781,1.90407847 11.5278921,1.48507974 10.7529304,0.393345294 Z M10.662,0.692 L10.7753065,0.83561842 C11.5016408,1.72344289 12.3669084,2.1395997 14.1151042,2.63962886 L14.746155,2.81577484 C15.7032431,3.08361806 16.2803798,3.28769317 16.8478029,3.59279407 C17.6633127,4.03064789 17.9071339,4.46025079 18.0681065,5.4681783 L18.14,5.958 L17.9822847,5.78210306 C17.4096894,5.17463061 16.7808244,4.7069229 16.0935048,4.35631427 C15.1602936,3.88027384 14.5038795,3.7070965 13.0749796,3.50876471 L12.4597331,3.4273129 C11.9363845,3.36057221 11.6473444,3.311732 11.3895584,3.23757209 C10.8963833,3.09430295 10.3671316,1.46216668 10.6457097,0.727839853 L10.662,0.692 Z" id="Stroke-21" fill-rule="nonzero" blush:i="0.5.0.2.0.0.10"/></g></g></g><g id="Glasses" transform="translate(286.000000, 108.000000) scale(1 1)" blush:width="24" blush:height="8" blush:component="Glasses" blush:i="0.5.0.3" blush:value="None" blush:viewBox="42 14 0 0"><g id="Glasses/None" stroke="none" stroke-width="1" fill="none" fill-rule="evenodd" fill-opacity="0" blush:viewBox="42 14 0 0" blush:i="0.5.0.3.0"/></g></g></g></g></svg>